<svg width="399" height="399" viewBox="0 0 399 399" fill="none" xmlns="http://www.w3.org/2000/svg">
<path d="M383.389 1H16.7256V17.8587H383.389V1Z" stroke="#263238" stroke-linecap="round" stroke-linejoin="round"/>
<path d="M378.027 12.906C377.383 13.5905 376.564 14.0563 375.672 14.2445C374.78 14.4327 373.856 14.3349 373.016 13.9634C372.177 13.5919 371.459 12.9633 370.954 12.1572C370.45 11.3511 370.18 10.4035 370.18 9.4342C370.18 8.46488 370.45 7.51731 370.954 6.71118C371.459 5.90506 372.177 5.27654 373.016 4.90503C373.856 4.53353 374.78 4.43569 375.672 4.6239C376.564 4.8121 377.383 5.27789 378.027 5.96244C378.455 6.41794 378.795 6.95906 379.027 7.55481C379.259 8.15055 379.378 8.7892 379.378 9.4342C379.378 10.0792 379.259 10.7179 379.027 11.3136C378.795 11.9093 378.455 12.4505 378.027 12.906V12.906Z" stroke="#263238" stroke-linecap="round" stroke-linejoin="round"/>
<path d="M376.445 7.64929L373.088 11.2191" stroke="#263238" stroke-linecap="round" stroke-linejoin="round"/>
<path d="M376.445 11.2191L373.088 7.64929" stroke="#263238" stroke-linecap="round" stroke-linejoin="round"/>
<path d="M365.546 9.4342C365.546 10.404 365.276 11.3521 364.771 12.1585C364.265 12.9649 363.547 13.5934 362.707 13.9646C361.866 14.3357 360.942 14.4328 360.05 14.2436C359.158 14.0544 358.338 13.5874 357.695 12.9016C357.052 12.2158 356.614 11.3421 356.436 10.3908C356.259 9.43964 356.35 8.45368 356.698 7.55766C357.046 6.66164 357.636 5.8958 358.392 5.35699C359.148 4.81817 360.037 4.53058 360.947 4.53058C362.167 4.53058 363.336 5.04721 364.199 5.96682C365.061 6.88642 365.546 8.13367 365.546 9.4342V9.4342Z" stroke="#263238" stroke-linecap="round" stroke-linejoin="round"/>
<path d="M360.938 11.9645V6.90393H363.311V9.4342H358.565V11.9645H360.938Z" stroke="#263238" stroke-linecap="round" stroke-linejoin="round"/>
<path d="M351.722 9.4342C351.722 10.404 351.452 11.3521 350.947 12.1585C350.441 12.9649 349.723 13.5934 348.883 13.9646C348.042 14.3357 347.118 14.4328 346.226 14.2436C345.334 14.0544 344.514 13.5874 343.871 12.9016C343.228 12.2158 342.79 11.3421 342.612 10.3908C342.435 9.43964 342.526 8.45368 342.874 7.55766C343.222 6.66164 343.812 5.8958 344.568 5.35699C345.324 4.81817 346.213 4.53058 347.123 4.53058C348.342 4.53058 349.512 5.04721 350.375 5.96682C351.237 6.88642 351.722 8.13367 351.722 9.4342V9.4342Z" stroke="#263238" stroke-linecap="round" stroke-linejoin="round"/>
<path d="M349.487 9.4342H344.741" stroke="#263238" stroke-linecap="round" stroke-linejoin="round"/>
<path d="M16.1277 110.125V22.5171H85.1284" stroke="#263238" stroke-linecap="round" stroke-linejoin="round"/>
<path d="M383.398 160.427V22.5171H347.114" stroke="#263238" stroke-linecap="round" stroke-linejoin="round"/>
<path d="M383.398 169.743V200.126" stroke="#263238" stroke-linecap="round" stroke-linejoin="round"/>
<path d="M383.398 223.262V235.177" stroke="#263238" stroke-linecap="round" stroke-linejoin="round"/>
<path d="M16.0818 118.108V132.074" stroke="#263238" stroke-linecap="round" stroke-linejoin="round"/>
<path d="M92.7715 22.5171H190.754" stroke="#263238" stroke-linecap="round" stroke-linejoin="round"/>
<path d="M222.081 22.5171H228.317" stroke="#263238" stroke-linecap="round" stroke-linejoin="round"/>
<path d="M303.498 325.561H297.612C296.697 325.534 295.818 325.172 295.123 324.537C294.428 323.901 293.959 323.03 293.795 322.07L292.369 312.517" stroke="#263238" stroke-linecap="round" stroke-linejoin="round"/>
<path d="M324.607 312.517L326.042 322.07C326.118 322.499 326.104 322.942 326 323.365C325.896 323.788 325.705 324.181 325.441 324.515C325.177 324.85 324.846 325.117 324.473 325.298C324.099 325.479 323.693 325.569 323.283 325.561H306.414" stroke="#263238" stroke-linecap="round" stroke-linejoin="round"/>
<path d="M312.963 299.464H319.401C320.315 299.493 321.191 299.855 321.884 300.491C322.578 301.126 323.045 301.996 323.209 302.955L324.073 308.751" stroke="#263238" stroke-linecap="round" stroke-linejoin="round"/>
<path d="M308.493 299.464H310.525" stroke="#263238" stroke-linecap="round" stroke-linejoin="round"/>
<path d="M291.974 309.859L290.934 302.994C290.858 302.565 290.872 302.122 290.976 301.699C291.08 301.276 291.271 300.883 291.535 300.549C291.799 300.214 292.13 299.947 292.504 299.766C292.877 299.585 293.284 299.495 293.694 299.503H304.345" stroke="#263238" stroke-linecap="round" stroke-linejoin="round"/>
<path d="M315.75 294.158H313.386C313.187 294.163 312.995 294.23 312.831 294.35C312.668 294.471 312.541 294.639 312.466 294.835L311.675 297.002H297.612C296.924 297.002 296.253 297.232 295.694 297.66C295.135 298.087 294.715 298.691 294.494 299.385" stroke="#263238" stroke-linecap="round" stroke-linejoin="round"/>
<path d="M326.566 300.513C326.566 299.628 326.25 298.777 325.683 298.13C325.116 297.484 324.34 297.091 323.512 297.032L322.712 294.835C322.637 294.639 322.51 294.471 322.347 294.35C322.184 294.23 321.991 294.163 321.793 294.158H317.332" stroke="#263238" stroke-linecap="round" stroke-linejoin="round"/>
<path d="M323.31 325.561C323.742 325.562 324.17 325.472 324.569 325.297C324.969 325.122 325.332 324.864 325.638 324.539C325.944 324.214 326.186 323.827 326.352 323.402C326.518 322.976 326.603 322.52 326.603 322.06V304.083" stroke="#263238" stroke-linecap="round" stroke-linejoin="round"/>
<path d="M244.624 316.009L242.674 302.955C242.598 302.526 242.612 302.083 242.716 301.66C242.82 301.237 243.011 300.844 243.275 300.51C243.539 300.175 243.87 299.908 244.244 299.727C244.617 299.546 245.024 299.456 245.434 299.464H249.665" stroke="#263238" stroke-linecap="round" stroke-linejoin="round"/>
<path d="M263.976 325.561H249.343C248.428 325.532 247.55 325.17 246.856 324.535C246.161 323.899 245.692 323.029 245.526 322.069L245.075 319.039" stroke="#263238" stroke-linecap="round" stroke-linejoin="round"/>
<path d="M271.012 325.561H266.156" stroke="#263238" stroke-linecap="round" stroke-linejoin="round"/>
<path d="M253.408 299.464H271.141C272.055 299.493 272.931 299.855 273.624 300.491C274.318 301.126 274.785 301.996 274.949 302.955L277.809 322.069C277.886 322.499 277.872 322.941 277.768 323.365C277.664 323.788 277.473 324.181 277.209 324.515C276.944 324.849 276.614 325.117 276.24 325.298C275.867 325.479 275.46 325.569 275.05 325.561" stroke="#263238" stroke-linecap="round" stroke-linejoin="round"/>
<path d="M257.547 297.002H249.343C248.655 297.004 247.985 297.234 247.426 297.661C246.867 298.089 246.447 298.691 246.225 299.385" stroke="#263238" stroke-linecap="round" stroke-linejoin="round"/>
<path d="M278.297 312.517V300.513C278.296 299.628 277.981 298.777 277.414 298.13C276.847 297.484 276.071 297.091 275.243 297.032L274.443 294.835C274.37 294.637 274.244 294.468 274.08 294.347C273.916 294.227 273.722 294.161 273.523 294.158H265.126C264.927 294.161 264.733 294.227 264.569 294.347C264.406 294.468 264.279 294.637 264.206 294.835L263.415 297.002H260.242" stroke="#263238" stroke-linecap="round" stroke-linejoin="round"/>
<path d="M275.004 325.561C275.436 325.562 275.864 325.473 276.263 325.297C276.663 325.122 277.026 324.864 277.332 324.539C277.638 324.214 277.88 323.827 278.046 323.402C278.212 322.976 278.297 322.52 278.297 322.06V314.871" stroke="#263238" stroke-linecap="round" stroke-linejoin="round"/>
<path d="M255.248 278.3H249.352C248.437 278.271 247.559 277.909 246.865 277.273C246.17 276.638 245.701 275.768 245.535 274.808L244.109 265.246" stroke="#263238" stroke-linecap="round" stroke-linejoin="round"/>
<path d="M276.347 265.246L277.773 274.808C277.849 275.238 277.835 275.68 277.731 276.103C277.627 276.527 277.436 276.92 277.172 277.254C276.908 277.588 276.577 277.856 276.203 278.037C275.83 278.218 275.423 278.307 275.013 278.3H258.145" stroke="#263238" stroke-linecap="round" stroke-linejoin="round"/>
<path d="M264.694 252.193H271.132C272.046 252.224 272.923 252.589 273.616 253.226C274.309 253.863 274.776 254.734 274.94 255.694L275.814 261.48" stroke="#263238" stroke-linecap="round" stroke-linejoin="round"/>
<path d="M260.224 252.193H262.265" stroke="#263238" stroke-linecap="round" stroke-linejoin="round"/>
<path d="M243.705 262.598L242.674 255.733C242.596 255.303 242.609 254.86 242.713 254.435C242.816 254.011 243.007 253.617 243.271 253.281C243.535 252.945 243.867 252.677 244.241 252.496C244.615 252.314 245.023 252.224 245.434 252.232H256.085" stroke="#263238" stroke-linecap="round" stroke-linejoin="round"/>
<path d="M267.49 246.897H265.117C264.917 246.897 264.722 246.962 264.558 247.083C264.394 247.204 264.268 247.375 264.197 247.574L263.406 249.741H249.343C248.655 249.743 247.985 249.973 247.426 250.4C246.867 250.828 246.447 251.43 246.225 252.124" stroke="#263238" stroke-linecap="round" stroke-linejoin="round"/>
<path d="M278.297 253.252C278.296 252.367 277.981 251.516 277.414 250.869C276.847 250.223 276.071 249.83 275.243 249.771L274.443 247.574C274.372 247.375 274.246 247.204 274.082 247.083C273.918 246.962 273.723 246.897 273.523 246.897H269.044" stroke="#263238" stroke-linecap="round" stroke-linejoin="round"/>
<path d="M275.004 278.3C275.436 278.301 275.864 278.211 276.263 278.036C276.663 277.861 277.026 277.603 277.332 277.278C277.638 276.952 277.88 276.566 278.046 276.141C278.212 275.715 278.297 275.259 278.297 274.799V256.841" stroke="#263238" stroke-linecap="round" stroke-linejoin="round"/>
<path d="M292.894 268.777L290.934 255.724C290.856 255.293 290.869 254.85 290.972 254.425C291.076 254.001 291.266 253.607 291.531 253.271C291.795 252.936 292.127 252.667 292.501 252.486C292.875 252.304 293.283 252.214 293.694 252.222H297.925" stroke="#263238" stroke-linecap="round" stroke-linejoin="round"/>
<path d="M312.273 278.3H297.612C296.697 278.273 295.818 277.911 295.123 277.276C294.428 276.64 293.959 275.769 293.795 274.808L293.344 271.778" stroke="#263238" stroke-linecap="round" stroke-linejoin="round"/>
<path d="M319.281 278.3H314.425" stroke="#263238" stroke-linecap="round" stroke-linejoin="round"/>
<path d="M301.64 252.193H319.373C320.288 252.224 321.165 252.589 321.858 253.226C322.55 253.863 323.018 254.734 323.181 255.694L326.069 274.808C326.146 275.238 326.132 275.68 326.028 276.104C325.924 276.527 325.733 276.92 325.469 277.254C325.204 277.588 324.873 277.856 324.5 278.037C324.127 278.218 323.72 278.308 323.31 278.3" stroke="#263238" stroke-linecap="round" stroke-linejoin="round"/>
<path d="M305.835 249.741H297.63C296.942 249.741 296.271 249.971 295.712 250.398C295.153 250.826 294.733 251.429 294.512 252.124" stroke="#263238" stroke-linecap="round" stroke-linejoin="round"/>
<path d="M326.566 265.246V253.252C326.566 252.367 326.25 251.516 325.683 250.869C325.116 250.223 324.34 249.83 323.512 249.771L322.712 247.574C322.638 247.377 322.511 247.208 322.348 247.088C322.184 246.967 321.991 246.901 321.792 246.897H313.404C313.206 246.901 313.012 246.967 312.849 247.088C312.685 247.208 312.559 247.377 312.484 247.574L311.693 249.741H308.529" stroke="#263238" stroke-linecap="round" stroke-linejoin="round"/>
<path d="M323.31 278.3C323.742 278.301 324.17 278.211 324.569 278.036C324.969 277.861 325.332 277.603 325.638 277.278C325.944 276.953 326.186 276.566 326.352 276.141C326.518 275.715 326.603 275.259 326.603 274.799V267.571" stroke="#263238" stroke-linecap="round" stroke-linejoin="round"/>
<path d="M54.675 207.668H28.986C28.0704 207.637 27.1924 207.273 26.498 206.636C25.8035 205.999 25.3345 205.127 25.169 204.167L22.3177 185.053C22.2411 184.623 22.2553 184.18 22.3592 183.757C22.4631 183.334 22.6542 182.941 22.9185 182.607C23.1828 182.272 23.5136 182.005 23.887 181.824C24.2604 181.643 24.667 181.553 25.077 181.561H50.7752C51.6889 181.59 52.5655 181.953 53.2585 182.588C53.9516 183.224 54.4192 184.094 54.583 185.053L57.4435 204.167C57.5218 204.598 57.5087 205.042 57.405 205.467C57.3012 205.892 57.1096 206.287 56.8441 206.623C56.5786 206.959 56.246 207.227 55.8707 207.408C55.4953 207.589 55.0868 207.677 54.675 207.668Z" stroke="#263238" stroke-linecap="round" stroke-linejoin="round"/>
<path d="M54.675 207.668C55.5483 207.668 56.3858 207.298 57.0033 206.64C57.6208 205.981 57.9678 205.088 57.9678 204.157V182.581C57.9673 181.696 57.6518 180.845 57.0849 180.198C56.518 179.552 55.7422 179.159 54.9141 179.1L54.114 176.903C54.0409 176.705 53.9145 176.536 53.7507 176.415C53.5869 176.295 53.3932 176.229 53.1942 176.226H44.7876C44.5886 176.229 44.3948 176.295 44.2311 176.415C44.0673 176.536 43.9408 176.705 43.8678 176.903L43.0768 179.07H28.986C28.2985 179.081 27.6312 179.32 27.0771 179.754C26.5231 180.188 26.1101 180.796 25.8956 181.493" stroke="#263238" stroke-linecap="round" stroke-linejoin="round"/>
<path d="M245.02 283.37C247.722 283.37 249.913 281.034 249.913 278.153C249.913 275.271 247.722 272.935 245.02 272.935C242.317 272.935 240.127 275.271 240.127 278.153C240.127 281.034 242.317 283.37 245.02 283.37Z" fill="white" stroke="#263238" stroke-linecap="round" stroke-linejoin="round"/>
<path d="M244.1 276.191C244.283 276.217 244.469 276.168 244.62 276.053C244.77 275.939 244.874 275.767 244.91 275.573H245.397V280.546H244.67V276.76H244.1V276.191Z" fill="#263238"/>
<path d="M301.64 278.153C301.642 279.185 301.357 280.195 300.82 281.054C300.284 281.913 299.52 282.584 298.626 282.98C297.732 283.376 296.748 283.481 295.798 283.281C294.849 283.081 293.976 282.585 293.291 281.855C292.605 281.126 292.138 280.196 291.949 279.184C291.759 278.172 291.856 277.122 292.226 276.168C292.596 275.214 293.223 274.399 294.028 273.825C294.833 273.251 295.779 272.945 296.747 272.945C298.043 272.945 299.287 273.493 300.204 274.47C301.121 275.446 301.638 276.771 301.64 278.153Z" fill="white" stroke="#263238" stroke-linecap="round" stroke-linejoin="round"/>
<path d="M296.766 276.221C296.536 276.221 296.389 276.358 296.389 276.711V277.241H295.717V276.76C295.717 275.966 296.085 275.515 296.812 275.515C297.538 275.515 297.897 275.966 297.897 276.76C297.88 277.137 297.789 277.506 297.631 277.844C297.473 278.182 297.25 278.481 296.977 278.722C296.545 279.212 296.425 279.447 296.425 279.702V279.81H297.814V280.546H295.717V279.938C295.727 279.633 295.797 279.334 295.922 279.061C296.047 278.787 296.225 278.544 296.444 278.349C296.662 278.161 296.84 277.925 296.965 277.658C297.09 277.391 297.16 277.098 297.17 276.799C297.152 276.348 297.005 276.221 296.766 276.221Z" fill="#263238"/>
<path d="M249.913 325.561C249.915 326.593 249.629 327.603 249.093 328.462C248.556 329.321 247.793 329.992 246.899 330.388C246.005 330.785 245.021 330.889 244.071 330.689C243.121 330.489 242.248 329.993 241.563 329.263C240.878 328.534 240.411 327.605 240.221 326.592C240.032 325.58 240.128 324.53 240.498 323.576C240.868 322.622 241.496 321.807 242.3 321.233C243.105 320.659 244.052 320.353 245.02 320.353C246.316 320.353 247.559 320.902 248.477 321.878C249.394 322.854 249.911 324.179 249.913 325.561V325.561Z" fill="white" stroke="#263238" stroke-linecap="round" stroke-linejoin="round"/>
<path d="M245.379 324.198C245.379 323.756 245.231 323.629 245.002 323.629C244.772 323.629 244.624 323.766 244.624 324.119V324.443H243.935V324.168C243.935 323.374 244.303 322.923 245.02 322.923C245.173 322.909 245.328 322.933 245.471 322.992C245.615 323.051 245.744 323.143 245.85 323.263C245.955 323.383 246.033 323.527 246.079 323.683C246.125 323.84 246.137 324.006 246.114 324.168V324.296C246.133 324.496 246.094 324.697 246.002 324.873C245.91 325.048 245.769 325.189 245.599 325.276C245.779 325.367 245.926 325.517 246.019 325.705C246.112 325.892 246.145 326.107 246.114 326.316V326.708C246.137 326.871 246.125 327.036 246.079 327.193C246.033 327.35 245.955 327.494 245.85 327.613C245.744 327.733 245.615 327.826 245.471 327.885C245.328 327.944 245.173 327.967 245.02 327.954C244.303 327.954 243.935 327.493 243.935 326.708V326.296H244.624V326.757C244.624 327.11 244.772 327.248 245.002 327.248C245.231 327.248 245.379 327.12 245.379 326.679V326.296C245.379 325.835 245.231 325.659 244.9 325.659H244.652V324.953H244.937C245.213 324.953 245.379 324.825 245.379 324.423V324.198Z" fill="#263238"/>
<path d="M301.64 325.561C301.642 326.593 301.357 327.603 300.82 328.462C300.284 329.321 299.52 329.992 298.626 330.388C297.732 330.785 296.748 330.889 295.798 330.689C294.849 330.489 293.976 329.993 293.291 329.263C292.605 328.534 292.138 327.605 291.949 326.592C291.759 325.58 291.856 324.53 292.226 323.576C292.596 322.622 293.223 321.807 294.028 321.233C294.833 320.659 295.779 320.353 296.747 320.353C298.043 320.353 299.287 320.902 300.204 321.878C301.121 322.854 301.638 324.179 301.64 325.561V325.561Z" fill="white" stroke="#263238" stroke-linecap="round" stroke-linejoin="round"/>
<path d="M295.524 326.336L296.858 322.982H297.658V326.336H297.998V327.042H297.658V327.944H296.922V327.042H295.524V326.336ZM296.922 326.336V324.502L296.214 326.336H296.922Z" fill="#263238"/>
<path d="M332.379 171.352H350.029" stroke="#263238" stroke-linecap="round" stroke-linejoin="round"/>
<path d="M325.343 184.042V171.352H329.463" stroke="#263238" stroke-linecap="round" stroke-linejoin="round"/>
<path d="M328.856 213.121H325.343V186.347" stroke="#263238" stroke-linecap="round" stroke-linejoin="round"/>
<path d="M335.285 213.111H330.861" stroke="#263238" stroke-linecap="round" stroke-linejoin="round"/>
<path d="M358.62 212.444V213.121H339.893" stroke="#263238" stroke-linecap="round" stroke-linejoin="round"/>
<path d="M358.62 180.502V209.914" stroke="#263238" stroke-linecap="round" stroke-linejoin="round"/>
<path d="M364.138 174.618V207.237H330.861V165.467H355.548L361.324 171.626L364.138 174.618Z" fill="white" stroke="#263238" stroke-linecap="round" stroke-linejoin="round"/>
<path d="M364.138 174.618H355.548V165.467L361.324 171.626L364.138 174.618Z" fill="white" stroke="#263238" stroke-linecap="round" stroke-linejoin="round"/>
<path d="M347.5 181.885V190.809" stroke="#263238" stroke-linecap="round" stroke-linejoin="round"/>
<path d="M351.685 186.347H343.315" stroke="#263238" stroke-linecap="round" stroke-linejoin="round"/>
<path d="M127.677 95.5419V148.315H73.8245V80.7231H113.779L123.124 90.6873L127.677 95.5419Z" fill="#009AF6" stroke="#263238" stroke-linecap="round" stroke-linejoin="round"/>
<path d="M85.7998 90.8834H120.723" stroke="#263238" stroke-linecap="round" stroke-linejoin="round"/>
<path d="M80.8882 97.6406H120.723" stroke="#263238" stroke-linecap="round" stroke-linejoin="round"/>
<path d="M80.8882 104.408H120.723" stroke="#263238" stroke-linecap="round" stroke-linejoin="round"/>
<path d="M80.8882 111.165H120.723" stroke="#263238" stroke-linecap="round" stroke-linejoin="round"/>
<path d="M80.8882 117.932H120.723" stroke="#263238" stroke-linecap="round" stroke-linejoin="round"/>
<path d="M80.8882 124.689H120.723" stroke="#263238" stroke-linecap="round" stroke-linejoin="round"/>
<path d="M80.8882 131.446H120.723" stroke="#263238" stroke-linecap="round" stroke-linejoin="round"/>
<path d="M80.8882 138.213H115.812" stroke="#263238" stroke-linecap="round" stroke-linejoin="round"/>
<path d="M127.677 95.5419H113.779V80.7231L123.124 90.6873L127.677 95.5419Z" fill="#009AF6" stroke="#263238" stroke-linecap="round" stroke-linejoin="round"/>
<path d="M304.069 78.7714V131.544H250.226V63.9527H290.18L299.516 73.9169L304.069 78.7714Z" fill="#009AF6" stroke="#263238" stroke-linecap="round" stroke-linejoin="round"/>
<path d="M262.201 74.113H297.125" stroke="#263238" stroke-linecap="round" stroke-linejoin="round"/>
<path d="M257.28 80.88H297.125" stroke="#263238" stroke-linecap="round" stroke-linejoin="round"/>
<path d="M257.28 87.6372H297.125" stroke="#263238" stroke-linecap="round" stroke-linejoin="round"/>
<path d="M257.28 94.3944H297.125" stroke="#263238" stroke-linecap="round" stroke-linejoin="round"/>
<path d="M257.28 101.161H297.125" stroke="#263238" stroke-linecap="round" stroke-linejoin="round"/>
<path d="M257.28 107.919H297.125" stroke="#263238" stroke-linecap="round" stroke-linejoin="round"/>
<path d="M257.28 114.686H297.125" stroke="#263238" stroke-linecap="round" stroke-linejoin="round"/>
<path d="M257.28 121.443H292.213" stroke="#263238" stroke-linecap="round" stroke-linejoin="round"/>
<path d="M304.069 78.7714H290.18V63.9527L299.516 73.9169L304.069 78.7714Z" fill="#009AF6" stroke="#263238" stroke-linecap="round" stroke-linejoin="round"/>
<path d="M309.891 134.153V140.037H304.372" stroke="#263238" stroke-linecap="round" stroke-linejoin="round"/>
<path d="M293.482 140.037H255.367" stroke="#263238" stroke-linecap="round" stroke-linejoin="round" stroke-dasharray="11.84 11.84"/>
<path d="M249.922 140.037H244.404V134.153" stroke="#263238" stroke-linecap="round" stroke-linejoin="round"/>
<path d="M244.404 123.747V66.5516" stroke="#263238" stroke-linecap="round" stroke-linejoin="round" stroke-dasharray="10.6 10.6"/>
<path d="M244.404 61.3538V55.4694H249.922" stroke="#263238" stroke-linecap="round" stroke-linejoin="round"/>
<path d="M260.812 55.4694H298.927" stroke="#263238" stroke-linecap="round" stroke-linejoin="round" stroke-dasharray="11.84 11.84"/>
<path d="M304.372 55.4694H309.891V61.3538" stroke="#263238" stroke-linecap="round" stroke-linejoin="round"/>
<path d="M309.891 71.7495V128.945" stroke="#263238" stroke-linecap="round" stroke-linejoin="round" stroke-dasharray="10.6 10.6"/>
<path d="M134.253 116.108L232.336 99.6707" stroke="#263238" stroke-linecap="round" stroke-linejoin="round" stroke-dasharray="12 12"/>
<path d="M234.277 99.1804L231.279 97.9545L231.996 101.583L234.277 99.1804Z" fill="#263238"/>
<path d="M135.255 116.108C135.255 116.319 135.197 116.526 135.086 116.702C134.976 116.877 134.82 117.014 134.637 117.095C134.453 117.176 134.252 117.197 134.057 117.156C133.863 117.115 133.684 117.013 133.544 116.864C133.404 116.714 133.308 116.524 133.27 116.316C133.231 116.109 133.251 115.894 133.327 115.699C133.403 115.503 133.531 115.336 133.696 115.219C133.861 115.101 134.055 115.039 134.253 115.039C134.385 115.037 134.516 115.064 134.638 115.117C134.76 115.171 134.871 115.249 134.965 115.349C135.058 115.448 135.132 115.567 135.182 115.697C135.232 115.827 135.257 115.967 135.255 116.108Z" fill="#263238"/>
<path d="M313.509 64.1447C316.68 60.7628 316.68 55.2798 313.509 51.8979C310.337 48.516 305.195 48.516 302.023 51.8979C298.852 55.2798 298.852 60.7628 302.023 64.1447C305.195 67.5266 310.337 67.5266 313.509 64.1447Z" fill="white" stroke="#263238" stroke-linecap="round" stroke-linejoin="round"/>
<path d="M307.766 53.557V62.4816" stroke="#263238" stroke-linecap="round" stroke-linejoin="round"/>
<path d="M311.951 58.0193H303.59" stroke="#263238" stroke-linecap="round" stroke-linejoin="round"/>
<path d="M171.844 199.597C170.758 199.597 168.643 196.419 167.41 194.399C167.41 198.577 167.41 209.247 169.149 208.561C171.246 207.707 173.453 199.597 171.844 199.597Z" fill="white" stroke="#263238" stroke-linecap="round" stroke-linejoin="round"/>
<path d="M167.098 228.871C166.426 229.695 165.603 230.363 164.679 230.833C161.993 232.304 157.946 233 153.301 232.794C134.575 232.029 106.062 216.848 117.256 179.335C124.117 156.307 155.352 163.977 163.326 172.744C166.086 175.814 168.45 182.267 169.94 189.838C170.482 192.604 169.397 195.517 169.7 198.469C169.967 201.136 171.65 203.833 171.696 206.491C171.853 215.818 170.51 224.429 167.098 228.871Z" fill="white" stroke="#263238" stroke-linecap="round" stroke-linejoin="round"/>
<path d="M164.679 230.843C161.993 232.314 157.946 233.01 153.301 232.804C154.275 231.083 155.331 229.417 156.465 227.812C156.465 227.812 162.646 228.803 164.679 230.843Z" fill="#263238"/>
<path d="M158.994 227.675C158.994 227.675 157.293 250.388 160.098 255.508C162.903 260.627 135.871 265.756 125.055 255.508C125.055 255.508 131.236 238.6 130.638 222.271" fill="white"/>
<path d="M158.994 227.675C158.994 227.675 157.293 250.388 160.098 255.508C162.903 260.627 135.871 265.756 125.055 255.508C125.055 255.508 131.236 238.6 130.638 222.271" stroke="#263238" stroke-linecap="round" stroke-linejoin="round"/>
<path d="M163.326 184.317C163.326 184.317 171.742 180.512 168.9 167.919C164.899 150.158 155.886 161.133 152.887 158.485C148.224 154.385 139.275 150.639 132.064 157.122C124.853 163.604 120.456 164.33 111.249 173.578C102.043 182.826 102.052 203.559 111.249 211.758C120.447 219.957 122.857 228.587 131.668 231.323C140.48 234.059 153.614 230.342 156.253 223.252C157.773 219.428 158.666 215.354 158.893 211.208C158.893 211.208 166.536 196.811 163.326 184.317Z" fill="#263238"/>
<path d="M162.701 206.413C162.701 206.413 160.797 197.586 159.592 196.909C158.387 196.233 154.69 203.912 154.791 206.972C154.892 210.032 158.792 215.484 160.696 216.779C162.6 218.074 163.262 214.435 163.326 214.004" fill="white"/>
<path d="M162.701 206.413C162.701 206.413 160.797 197.586 159.592 196.909C158.387 196.233 154.69 203.912 154.791 206.972C154.892 210.032 158.792 215.484 160.696 216.779C162.6 218.074 163.262 214.435 163.326 214.004" stroke="#263238" stroke-linecap="round" stroke-linejoin="round"/>
<path d="M159.997 201.823C159.997 201.823 158.489 207.06 160.696 211.316" stroke="#263238" stroke-linecap="round" stroke-linejoin="round"/>
<path opacity="0.2" d="M162.103 174.206C161.882 177.011 161.183 180.374 158.994 182.179" stroke="white" stroke-linecap="round" stroke-linejoin="round"/>
<path opacity="0.2" d="M147.369 163.173C150.321 161.751 154.405 160.034 157.661 160.937C161.689 162.064 162.158 168.174 162.195 171.832" stroke="white" stroke-linecap="round" stroke-linejoin="round"/>
<path opacity="0.2" d="M153.623 189.917C153.176 191.47 152.584 192.972 151.857 194.399" stroke="white" stroke-linecap="round" stroke-linejoin="round"/>
<path opacity="0.2" d="M139.357 170.41C143.036 169.302 147.571 168.547 150.744 171.322C154.874 174.941 155.159 182.601 154.184 187.71" stroke="white" stroke-linecap="round" stroke-linejoin="round"/>
<path opacity="0.2" d="M142.981 184.709C146.155 190.907 146.099 203.569 138.76 206.57" stroke="white" stroke-linecap="round" stroke-linejoin="round"/>
<path opacity="0.2" d="M132.579 177.658C135.706 175.628 140.213 180.473 141.841 182.807" stroke="white" stroke-linecap="round" stroke-linejoin="round"/>
<path opacity="0.2" d="M140.774 158.622C140.227 157.854 139.48 157.275 138.626 156.958C137.772 156.64 136.849 156.598 135.973 156.837" stroke="white" stroke-linecap="round" stroke-linejoin="round"/>
<path opacity="0.2" d="M143.46 164.369C143.108 163.001 142.601 161.684 141.951 160.446" stroke="white" stroke-linecap="round" stroke-linejoin="round"/>
<path opacity="0.2" d="M134.271 171.479C134.271 171.479 134.759 161.368 127.833 164.144" stroke="white" stroke-linecap="round" stroke-linejoin="round"/>
<path opacity="0.2" d="M120.134 171.558C118.737 171.341 117.312 171.62 116.078 172.352" stroke="white" stroke-linecap="round" stroke-linejoin="round"/>
<path opacity="0.2" d="M125.901 178.178C125.225 175.71 123.744 173.582 121.726 172.176" stroke="white" stroke-linecap="round" stroke-linejoin="round"/>
<path opacity="0.2" d="M120.456 212.297C121.472 213.079 122.568 213.737 123.721 214.259" stroke="white" stroke-linecap="round" stroke-linejoin="round"/>
<path opacity="0.2" d="M116.363 188.122C114.524 194.399 113.871 205.775 118.773 210.865" stroke="white" stroke-linecap="round" stroke-linejoin="round"/>
<path opacity="0.2" d="M125.901 181.914C121.937 179.953 118.663 182.307 117.044 186.269" stroke="white" stroke-linecap="round" stroke-linejoin="round"/>
<path d="M122.627 247.613L127.125 233.746C127.125 233.746 159.629 229.185 167.401 240.679C175.173 252.173 122.627 247.613 122.627 247.613Z" fill="#009AF6" stroke="#263238" stroke-linecap="round" stroke-linejoin="round"/>
<path d="M64.406 227.675C64.406 227.675 60.727 221.251 61.0213 219.613C61.3156 217.976 60.3775 210.316 61.0213 206.609C61.6835 202.686 64.4152 203.559 64.4152 203.559C64.4152 203.559 65.5281 196.086 68.4346 196.635C68.4346 196.635 68.8301 187.475 69.8694 185.533C70.9087 183.591 71.433 182.395 71.433 182.395C71.433 182.395 73.5117 181.414 73.5117 184.709V194.134L75.8479 184.15L79.2326 179.178C79.9212 180.057 80.3297 181.146 80.3992 182.288C80.4686 183.431 80.1954 184.567 79.6189 185.533C78.1841 188.299 79.6189 205.501 79.6189 205.501C80.5994 205.226 81.5041 204.705 82.2576 203.981C83.0111 203.258 83.5917 202.353 83.951 201.342C83.951 201.342 85.1375 197.822 88.1819 196.949C91.2263 196.076 88.3842 199.95 87.2621 205.501C86.14 211.052 79.0394 223.242 75.3788 225.743" fill="white"/>
<path d="M64.406 227.675C64.406 227.675 60.727 221.251 61.0213 219.613C61.3156 217.976 60.3775 210.316 61.0213 206.609C61.6835 202.686 64.4152 203.559 64.4152 203.559C64.4152 203.559 65.5281 196.086 68.4346 196.635C68.4346 196.635 68.8301 187.475 69.8694 185.533C70.9087 183.591 71.433 182.395 71.433 182.395C71.433 182.395 73.5117 181.414 73.5117 184.709V194.134L75.8479 184.15L79.2326 179.178C79.9212 180.057 80.3297 181.146 80.3992 182.288C80.4686 183.431 80.1954 184.567 79.6189 185.533C78.1841 188.299 79.6189 205.501 79.6189 205.501C80.5994 205.226 81.5041 204.705 82.2576 203.981C83.0111 203.258 83.5917 202.353 83.951 201.342C83.951 201.342 85.1375 197.822 88.1819 196.949C91.2263 196.076 88.3842 199.95 87.2621 205.501C86.14 211.052 79.0394 223.242 75.3788 225.743" stroke="#263238" stroke-linecap="round" stroke-linejoin="round"/>
<path d="M77.347 221.143L68.2966 276.515L96.1286 259.195L90.4813 301.974C90.4813 301.974 54.6657 319.627 46.6178 321.481C38.5698 323.335 36.5556 298.924 37.7605 292.471C38.9653 286.018 61.1776 237.217 63.9369 223.438" fill="white"/>
<path d="M77.347 221.143L68.2966 276.515L96.1286 259.195L90.4813 301.974C90.4813 301.974 54.6657 319.627 46.6178 321.481C38.5698 323.335 36.5556 298.924 37.7605 292.471C38.9653 286.018 61.1776 237.217 63.9369 223.438" stroke="#263238" stroke-linecap="round" stroke-linejoin="round"/>
<path d="M47.1053 287.744C51.7624 283.844 57.0315 280.855 62.6677 278.918" stroke="#263238" stroke-linecap="round" stroke-linejoin="round"/>
<path d="M106.071 248.505L104.876 288.391L104.342 306.192L77.1263 313.478L69.8694 315.44C54.8865 304.652 57.0939 276.623 57.0939 276.623L64.3968 271.023L68.7749 271.955C68.7749 271.955 96.3126 250.143 106.071 248.505Z" fill="#009AF6"/>
<path opacity="0.2" d="M104.875 288.391L104.342 306.192L77.1263 313.478C74.7257 305.76 79.6924 307.878 79.6924 307.878C78.0676 305.257 77.1833 302.194 77.1447 299.052L82.1574 301.514C79.1313 293.364 84.236 284.204 84.236 284.204L85.1558 293.03C84.236 284.204 94.0315 269.346 94.0315 269.346C94.0315 269.346 101.206 275.387 104.875 288.391Z" fill="black" fill-opacity="0.7"/>
<path d="M106.071 248.505L104.876 288.391L104.342 306.192L77.1263 313.478L69.8694 315.44C54.8865 304.652 57.0939 276.623 57.0939 276.623L64.3968 271.023L68.7749 271.955C68.7749 271.955 96.3126 250.143 106.071 248.505Z" stroke="#263238" stroke-linecap="round" stroke-linejoin="round"/>
<path d="M83.3347 288.676C83.3347 288.676 83.2335 296.904 86.9218 303.691" stroke="#263238" stroke-linecap="round" stroke-linejoin="round"/>
<path d="M77.1447 301.553C77.1447 301.553 82.9943 309.183 87.1701 310.801" stroke="#263238" stroke-linecap="round" stroke-linejoin="round"/>
<path d="M68.7748 271.915C68.7748 271.915 63.9737 282.566 66.7422 293.03" stroke="#263238" stroke-linecap="round" stroke-linejoin="round"/>
<path d="M92.7715 261.421C88.6418 274.387 87.2529 298.11 86.977 320.422C86.6275 348.147 88.0072 373.695 88.0072 373.695C109.695 412.992 158.608 396.712 176.304 389.18H176.396C180.443 387.445 182.835 386.189 182.835 386.189C187.884 364.164 191.747 341.849 194.405 319.353V319.353C197.873 289.549 197.956 267.306 197.339 253.37C197.162 247.641 196.68 241.927 195.895 236.256C195.895 236.256 180.397 236.462 162.085 237.845C152.17 238.59 141.436 239.669 131.889 241.248C125.881 242.203 119.945 243.619 114.128 245.485C111.02 246.465 105.924 248.339 103.652 249.241C102.364 249.823 101.105 250.478 99.8813 251.202" fill="#009AF6"/>
<path opacity="0.2" d="M162.03 237.806C152.004 242.396 136.534 248.064 130.877 247.878C124.697 247.682 117.292 247.201 114.073 245.446C119.89 243.58 125.826 242.164 131.834 241.209C141.381 239.63 152.115 238.551 162.03 237.806Z" fill="black" fill-opacity="0.7"/>
<path opacity="0.2" d="M176.268 389.18C158.608 396.712 109.695 412.992 87.9704 373.695C87.9704 373.695 86.5908 348.147 86.9403 320.422C93.9121 335.721 116.888 345.626 116.888 345.626C116.888 345.626 114.349 315.646 116.888 308.408C119.426 301.17 126.628 259.097 126.628 259.097C126.628 259.097 129.387 267.541 125.018 290.559C120.65 313.576 122.59 345.626 122.59 345.626C133.296 348.108 158.958 345.626 158.958 345.626C140.526 373.538 99.8078 378.245 99.8078 378.245C127.971 403.46 173.977 389.877 176.268 389.18Z" fill="black" fill-opacity="0.7"/>
<path opacity="0.2" d="M194.359 319.314C193.587 312.802 192.86 307.888 192.86 307.888C191.021 323.354 171.871 328.317 176.36 323.089C180.848 317.862 188.85 301.514 188.85 301.514C184.729 288.705 191.453 251.144 191.453 251.144C191.453 251.144 193.789 251.82 197.293 253.291C197.91 267.267 197.827 289.509 194.359 319.314Z" fill="black" fill-opacity="0.7"/>
<path d="M182.789 386.16C187.838 364.135 191.701 341.819 194.359 319.324V319.324C197.827 289.519 197.91 267.276 197.293 253.34C197.116 247.611 196.634 241.898 195.849 236.227C195.849 236.227 180.351 236.433 162.039 237.816C152.124 238.561 141.39 239.64 131.843 241.219C125.835 242.174 119.899 243.59 114.082 245.455C110.974 246.436 105.878 248.309 103.606 249.212C102.318 249.794 101.059 250.448 99.8353 251.173" stroke="#263238" stroke-linecap="round" stroke-linejoin="round"/>
<path d="M92.7715 261.422C88.6418 274.387 87.2529 298.11 86.977 320.422C86.6275 348.147 88.0072 373.695 88.0072 373.695" stroke="#263238" stroke-linecap="round" stroke-linejoin="round"/>
<path d="M164.301 237.639C164.301 237.639 130.62 251.958 122.627 251.124" stroke="#263238" stroke-linecap="round" stroke-linejoin="round"/>
<path d="M126.941 257.008C126.941 257.008 117.173 327.522 120.447 351.579C120.447 351.579 117.734 374.685 114.726 389.131" stroke="#263238" stroke-linecap="round" stroke-linejoin="round"/>
<path d="M96.1286 339.575C96.1286 339.575 94.657 350.432 120.493 351.599C146.329 352.766 160.742 341.507 160.742 341.507" stroke="#263238" stroke-linecap="round" stroke-linejoin="round"/>
<path d="M269.495 172.744C268.832 166.958 268.354 151.914 269.495 150.953C270.635 149.992 276.641 140.008 276.641 140.008C277.938 140.116 277.561 142.303 277.561 142.303C277.561 142.303 285.37 127.935 287.163 125.032C288.957 122.129 290.171 124.051 289.867 127.258C289.867 127.258 292.01 122.561 292.976 124.002C294.871 126.847 290.474 141.018 290.474 141.018C290.474 141.018 294.448 140.704 294.255 145.51C294.255 145.51 296.674 144.706 296.876 148.893C297.014 151.678 295.754 159.858 293.068 158.151C293.068 158.151 291.367 169.812 281.111 175.432" fill="white"/>
<path d="M269.495 172.744C268.832 166.958 268.354 151.914 269.495 150.953C270.635 149.992 276.641 140.008 276.641 140.008C277.938 140.116 277.561 142.303 277.561 142.303C277.561 142.303 285.37 127.935 287.163 125.032C288.957 122.129 290.171 124.051 289.867 127.258C289.867 127.258 292.01 122.561 292.976 124.002C294.871 126.847 290.474 141.018 290.474 141.018C290.474 141.018 294.448 140.704 294.255 145.51C294.255 145.51 296.674 144.706 296.876 148.893C297.014 151.678 295.754 159.858 293.068 158.151C293.068 158.151 291.367 169.812 281.111 175.432" stroke="#263238" stroke-linecap="round" stroke-linejoin="round"/>
<path d="M277.543 142.264C277.543 142.264 275.041 147.01 273.339 150.325C271.638 153.64 271.638 155.445 271.638 155.445" stroke="#263238" stroke-linecap="round" stroke-linejoin="round"/>
<path d="M289.849 127.258C289.849 127.258 284.036 140.381 282.841 142.264" stroke="#263238" stroke-linecap="round" stroke-linejoin="round"/>
<path d="M290.456 141.018C290.456 141.018 288.147 143.48 287.853 143.852" stroke="#263238" stroke-linecap="round" stroke-linejoin="round"/>
<path d="M294.236 145.51C294.236 145.51 293.316 146.304 291.854 147.589" stroke="#263238" stroke-linecap="round" stroke-linejoin="round"/>
<path d="M293.05 158.151C293.05 158.151 293.556 154.415 293.556 154.101C293.556 153.787 295.156 152.6 295.653 150.894" stroke="#263238" stroke-linecap="round" stroke-linejoin="round"/>
<path d="M270.019 167.87C270.019 167.87 268.409 173.402 257.602 194.35C246.795 215.298 242.371 227.028 242.371 227.028L221.796 233.039L227.112 268.159C227.112 268.159 262.606 248.182 263.765 245.504C264.924 242.827 273.67 214.386 276.641 201.499C279.612 188.613 283.31 172.882 283.31 172.882" fill="white"/>
<path d="M270.019 167.87C270.019 167.87 268.409 173.402 257.602 194.35C246.795 215.298 242.371 227.028 242.371 227.028L221.796 233.039L227.112 268.159C227.112 268.159 262.606 248.182 263.765 245.504C264.924 242.827 273.67 214.386 276.641 201.499C279.612 188.613 283.31 172.882 283.31 172.882" stroke="#263238" stroke-linecap="round" stroke-linejoin="round"/>
<path d="M239.437 253.654C237.597 261.588 234.176 265.874 231.279 268.159C229.797 269.41 228.072 270.291 226.229 270.738L195.877 288.676C195.877 288.676 189.439 273.063 191.039 254.821C191.569 248.347 193.209 242.031 195.877 236.187L225.052 230.686L227.756 227.802H232.557C232.557 227.802 243.042 238.169 239.437 253.654Z" fill="#009AF6"/>
<path opacity="0.2" d="M231.279 268.159C229.797 269.41 228.072 270.291 226.229 270.738L195.877 288.676C195.877 288.676 189.439 273.063 191.039 254.821C196.769 255.508 194.874 276.093 196.889 276.329C199.068 276.593 208.533 261.422 210.474 261.422C213.573 261.422 210.575 275.868 210.474 276.329C210.897 276.172 224.435 270.768 228.335 262.883C230.267 258.97 231.674 262.304 231.279 268.159Z" fill="black" fill-opacity="0.7"/>
<path d="M239.437 253.654C237.597 261.588 234.176 265.874 231.279 268.159C229.797 269.41 228.072 270.291 226.229 270.738L195.877 288.676C195.877 288.676 189.439 273.063 191.039 254.821C191.569 248.347 193.209 242.031 195.877 236.187L225.052 230.686L227.756 227.802H232.557C232.557 227.802 243.042 238.169 239.437 253.654Z" stroke="#263238" stroke-linecap="round" stroke-linejoin="round"/>
<path d="M225.024 230.715C227.491 233.511 229.348 236.853 230.461 240.504C231.574 244.154 231.916 248.022 231.463 251.83" stroke="#263238" stroke-linecap="round" stroke-linejoin="round"/>
<path d="M207.42 268.159C207.42 268.159 198.535 280.644 195.849 288.676C195.849 288.676 188.491 314.459 178.3 321.579" stroke="#263238" stroke-linecap="round" stroke-linejoin="round"/>
<path d="M242.371 227.028C242.371 227.028 247.052 225.566 249.6 227.675" stroke="#263238" stroke-linecap="round" stroke-linejoin="round"/>
</svg>
