<svg width="497" height="498" viewBox="0 0 497 498" fill="none" xmlns="http://www.w3.org/2000/svg">
<path d="M207.746 95.7455C188.085 104.182 168.9 117.438 152.778 129.799C124.727 151.302 99.1018 177.607 81.2893 207.058C59.7295 242.775 59.302 284.248 73.1087 315.722C80.1363 331.758 91.1299 345.841 106 355.423C125.423 367.962 148.653 364.725 173.026 365.811C217.497 367.803 235.836 412.404 270.129 430.083C315.197 453.32 378.078 428.22 417.311 385.801C437.728 363.719 450.034 336.25 446.137 310.533C442.012 283.262 420.204 264.418 399.677 249.08C382.002 235.982 366.561 220.103 353.953 202.059C341.827 184.599 334.978 164.34 324.601 145.894C307.703 115.765 283.23 84.1421 240.379 87.1301C229.614 87.8671 218.61 91.0643 207.746 95.7455Z" fill="#00A3BD"/>
<path opacity="0.7" d="M207.746 95.7455C188.085 104.182 168.9 117.438 152.778 129.799C124.727 151.302 99.1018 177.607 81.2893 207.058C59.7295 242.775 59.302 284.248 73.1087 315.722C80.1363 331.758 91.1299 345.841 106 355.423C125.423 367.962 148.653 364.725 173.026 365.811C217.497 367.803 235.836 412.404 270.129 430.083C315.197 453.32 378.078 428.22 417.311 385.801C437.728 363.719 450.034 336.25 446.137 310.533C442.012 283.262 420.204 264.418 399.677 249.08C382.002 235.982 366.561 220.103 353.953 202.059C341.827 184.599 334.978 164.34 324.601 145.894C307.703 115.765 283.23 84.1421 240.379 87.1301C229.614 87.8671 218.61 91.0643 207.746 95.7455Z" fill="white"/>
<path d="M437.032 327.276C437.032 328.849 420.86 330.134 400.91 330.134C380.96 330.134 364.798 328.849 364.798 327.276C364.798 325.702 380.97 324.407 400.91 324.407C420.85 324.407 437.032 325.692 437.032 327.276Z" fill="#263238"/>
<path d="M362.989 175.665C362.989 175.665 359.112 173.673 359.112 170.057C359.112 166.442 367.591 163.145 374.768 164.151C381.945 165.157 385.404 173.941 384.827 178.981C384.251 184.021 384.688 187.477 389.429 190.784C394.171 194.091 402.789 204.319 399.369 209.499C395.95 214.678 391.755 216.411 394.916 220.455C398.077 224.498 398.654 229.09 394.489 232.257C392.588 233.826 390.275 234.81 387.828 235.089C385.381 235.369 382.906 234.931 380.702 233.831C375.961 231.53 371.08 223.174 372.372 216.989C373.664 210.803 369.5 192.656 368.347 186.182C367.194 179.708 365.862 175.953 362.989 175.665Z" fill="#263238" stroke="#263238" stroke-linecap="round" stroke-linejoin="round"/>
<path d="M367.78 224.907C367.78 224.907 361.17 230.813 358.735 232.536C357.355 233.651 355.614 234.215 353.844 234.12C352.979 234.12 350.862 233.124 349.679 234.269C348.496 235.415 346.807 238.731 347.234 239.02C347.661 239.309 351.26 236.709 351.687 236.709C352.115 236.709 353.268 236.57 353.268 236.57C353.268 236.57 350.107 238.871 350.822 239.299C351.538 239.727 353.417 238.442 354.132 238.004C355.242 237.108 356.297 236.147 357.293 235.126C357.293 235.126 365.335 230.813 367.233 230.375C369.132 229.937 370.832 226.779 370.682 225.773C370.585 225.494 370.422 225.241 370.209 225.037C369.995 224.832 369.735 224.682 369.452 224.597C369.169 224.512 368.87 224.496 368.579 224.55C368.288 224.604 368.014 224.726 367.78 224.907Z" fill="white" stroke="#263238" stroke-linecap="round" stroke-linejoin="round"/>
<path d="M365.862 189.24C366.987 190.668 367.656 192.404 367.78 194.22C367.78 196.959 363.615 201.999 362.174 206.311C360.733 210.624 361.896 213.513 363.039 215.096C364.182 216.68 366.2 219.269 366.349 220.714C366.498 222.158 367.064 224.698 367.064 224.698C367.064 224.698 371.945 226.142 381.577 222.257C381.577 222.257 382.571 200.086 382.292 197.208C382.014 194.33 378.128 192.457 376.259 192.168C374.39 191.879 372.233 190.724 371.517 189.29C371.088 188.415 370.755 187.497 370.523 186.551L365.862 189.24Z" fill="#00A3BD" stroke="#263238" stroke-linecap="round" stroke-linejoin="round"/>
<path d="M375.106 191.959C373.613 191.57 372.316 190.641 371.468 189.35C371.039 188.475 370.705 187.557 370.474 186.611L365.871 189.2C367.001 190.641 367.666 192.392 367.78 194.22C367.78 195.465 366.915 197.208 365.842 199.11C366.677 200.923 368.237 202.865 370.752 201.033C373.267 199.2 374.499 194.977 375.106 191.959Z" fill="white" stroke="#263238" stroke-linecap="round" stroke-linejoin="round"/>
<path d="M365.633 169.848C365.633 169.848 362.651 172.278 362.094 174.38C361.538 176.481 359.709 181.352 360.106 183.135C360.504 184.917 360.802 190.306 362.899 190.824C364.997 191.342 371.617 187.158 372.661 185.236C373.704 183.314 374.579 178.413 372.313 173.692C370.046 168.971 366.508 168.105 365.633 169.848Z" fill="white" stroke="#263238" stroke-linecap="round" stroke-linejoin="round"/>
<path d="M364.937 168.105C364.937 168.105 369.122 172.089 369.649 177.368C370.176 182.646 368.078 188.324 372.631 192.228C377.183 196.132 384.668 191.7 384.668 191.7C381.656 189.37 379.606 186.008 378.913 182.258C378.038 176.282 376.646 170.894 373.853 169.151C371.06 167.408 365.981 167.398 364.937 168.105Z" fill="#263238" stroke="#263238" stroke-linecap="round" stroke-linejoin="round"/>
<path d="M422.45 265.504C422.45 265.504 427.191 262.775 427.758 263.064C428.325 263.352 433.792 270.544 433.941 271.261C434.09 271.978 433.076 272.416 432.499 272.127C431.923 271.838 427.331 268.532 426.177 268.382C425.024 268.233 423.195 267.814 423.195 267.814L422.45 265.504Z" fill="#00A3BD" stroke="#263238" stroke-linecap="round" stroke-linejoin="round"/>
<path d="M374.738 317.336C374.63 319.052 374.296 320.747 373.744 322.375C373.028 323.82 370.444 326.26 370.444 326.837C370.444 327.415 370.871 327.555 371.587 327.555C373.411 327.299 375.116 326.497 376.478 325.254C377.281 324.189 377.949 323.028 378.466 321.798C378.903 321.22 380.623 320.503 380.772 319.208C380.921 317.913 379.042 315.752 379.042 315.752L374.738 317.336Z" fill="#00A3BD" stroke="#263238" stroke-linecap="round" stroke-linejoin="round"/>
<path d="M367.015 224.757C367.015 224.757 363.565 246.361 364.033 258.024C364.5 269.687 370.643 298.332 372.084 304.378C373.525 310.423 374.808 317.326 374.808 317.326L379.122 315.742C379.122 315.742 380.414 301.489 379.271 292.565C378.128 283.641 376.537 270.245 376.965 265.932C377.392 261.619 377.402 254.976 377.402 254.976C377.402 254.976 383.286 274.986 385.732 279.169C388.177 283.352 389.469 283.77 391.338 283.631C393.207 283.491 410.303 275.274 412.749 273.84C415.194 272.406 423.235 267.795 423.235 267.795L422.52 265.484C422.52 265.484 410.592 268.8 405.85 270.384C401.109 271.968 394.35 273.98 394.35 273.98C394.35 273.98 393.057 257.715 391.477 248.502C389.897 239.289 383.724 224.309 381.537 222.297C381.527 222.317 376.786 225.096 367.015 224.757Z" fill="#263238" stroke="#263238" stroke-linecap="round" stroke-linejoin="round"/>
<path d="M377.571 255.713L374.092 242.685" stroke="white" stroke-linecap="round" stroke-linejoin="round"/>
<path d="M376.776 196.212C375.75 198.025 375.445 200.159 375.921 202.188C376.776 205.375 382.282 221.52 382.282 221.52C382.282 221.52 376.14 225.554 372.75 227.885C369.958 229.691 367.057 231.321 364.062 232.765C363.526 232.532 362.947 232.411 362.363 232.411C361.778 232.411 361.199 232.532 360.663 232.765C359.182 233.622 356.22 237.227 356.856 237.656C357.492 238.084 360.454 235.743 360.454 235.743C361.788 235.957 363.131 236.1 364.48 236.172C365.752 236.172 368.088 234.04 368.088 234.04C368.088 234.04 388.217 224.488 388.853 224.488C389.489 224.488 382.074 197.208 382.074 197.208C382.074 197.208 380.801 195.087 378.893 194.877" fill="#00A3BD"/>
<path d="M376.776 196.212C375.75 198.025 375.445 200.159 375.921 202.188C376.776 205.375 382.282 221.52 382.282 221.52C382.282 221.52 376.14 225.554 372.75 227.885C369.958 229.691 367.057 231.321 364.062 232.765C363.526 232.532 362.947 232.411 362.363 232.411C361.778 232.411 361.199 232.532 360.663 232.765C359.182 233.622 356.22 237.227 356.856 237.656C357.492 238.084 360.454 235.743 360.454 235.743C361.788 235.957 363.131 236.1 364.48 236.172C365.752 236.172 368.088 234.04 368.088 234.04C368.088 234.04 388.217 224.488 388.853 224.488C389.489 224.488 382.074 197.208 382.074 197.208C382.074 197.208 380.801 195.087 378.893 194.877" stroke="#263238" stroke-linecap="round" stroke-linejoin="round"/>
<path d="M387.441 217.636L381.477 218.961C381.984 220.475 382.322 221.461 382.322 221.461C382.322 221.461 376.179 225.494 372.79 227.825C369.998 229.631 367.097 231.261 364.102 232.705C363.566 232.472 362.987 232.351 362.402 232.351C361.818 232.351 361.239 232.472 360.703 232.705C359.222 233.562 356.26 237.168 356.896 237.596C357.532 238.024 360.494 235.683 360.494 235.683C361.827 235.897 363.171 236.04 364.52 236.112C365.792 236.112 368.128 233.98 368.128 233.98C368.128 233.98 388.256 224.429 388.893 224.429C389.062 224.429 388.406 221.53 387.441 217.636Z" fill="white" stroke="#263238" stroke-linecap="round" stroke-linejoin="round"/>
<path d="M218.183 219.02C218.183 220.604 202.021 221.889 182.071 221.889C162.121 221.889 145.959 220.604 145.959 219.02C145.959 217.437 162.121 216.132 182.071 216.132C202.021 216.132 218.183 217.447 218.183 219.02Z" fill="#263238"/>
<path d="M187.747 81.3533L175.093 107.379L178.88 109.54L189.904 95.0981L187.747 81.3533Z" fill="#00A3BD" stroke="#263238" stroke-linecap="round" stroke-linejoin="round"/>
<path d="M221.791 79.4609L228.322 110.178L239.614 121.781C239.614 121.781 246.85 123.524 247.715 124.102C248.58 124.679 250.319 127.588 250.319 127.588L249.166 128.165L243.957 125.845H242.218L245.399 128.454L244.792 129.042L236.711 123.235L223.103 113.076L218.471 103.504L221.791 79.4609Z" fill="#00A3BD" stroke="#263238" stroke-linecap="round" stroke-linejoin="round"/>
<path d="M247.715 124.102C246.85 123.524 239.614 121.781 239.614 121.781L228.322 110.178L227.875 108.096L222.318 111.442L223.103 113.076L236.711 123.235L244.792 129.042L245.399 128.454L242.218 125.845H243.957L249.166 128.165L250.319 127.588C250.319 127.588 248.589 124.689 247.715 124.102Z" fill="white" stroke="#263238" stroke-linecap="round" stroke-linejoin="round"/>
<path d="M199.416 76.692L187.697 81.3035C187.697 81.3035 190.987 101.622 191.126 105.307C191.265 108.992 190.331 118.893 191.126 119.948C191.922 121.004 193.89 121.134 193.89 121.134L217.935 121.014C217.935 121.014 219.992 120.018 219.167 116.263C218.71 114.201 219.684 97.9267 219.952 94.4905C220.221 91.0543 221.791 79.4609 221.791 79.4609C221.791 79.4609 212.05 76.692 209.416 76.2936C206.782 75.8952 201.394 75.3673 199.416 76.692Z" fill="#00A3BD" stroke="#263238" stroke-linecap="round" stroke-linejoin="round"/>
<path d="M201.782 73.3554C200.76 73.6342 199.778 74.0425 198.86 74.5705C198.383 75.0586 198.015 77.6183 197.528 78.9629C197.041 80.3075 195.46 82.6182 195.947 82.7377C196.434 82.8572 200.569 80.7457 200.569 80.7457L205.311 86.1341L209.814 80.5067C209.814 80.5067 213.332 83.1859 213.581 82.8174C213.829 82.4489 212 78.0665 211.881 76.2438C211.762 74.4211 209.078 73.8036 207.498 73.6841C205.917 73.5646 201.782 73.3554 201.782 73.3554Z" fill="white" stroke="#263238" stroke-linecap="round" stroke-linejoin="round"/>
<path d="M200.728 70.4072V77.5286L205.162 85.7158L209.396 77.429V69.9889L200.728 70.4072Z" fill="white" stroke="#263238" stroke-linecap="round" stroke-linejoin="round"/>
<path d="M198.86 62.3596C198.86 62.3596 197.07 59.1624 196.066 60.9652C195.063 62.7679 196.464 66.5527 197.06 67.5487C197.657 68.5447 198.651 66.9511 198.651 66.9511" fill="white"/>
<path d="M198.86 62.3596C198.86 62.3596 197.07 59.1624 196.066 60.9652C195.063 62.7679 196.464 66.5527 197.06 67.5487C197.657 68.5447 198.651 66.9511 198.651 66.9511" stroke="#263238" stroke-linecap="round" stroke-linejoin="round"/>
<path d="M211.722 62.3596C211.722 62.3596 213.521 59.1624 214.515 60.9652C215.509 62.7679 214.118 66.5527 213.521 67.5487C212.925 68.5447 211.921 66.9511 211.921 66.9511" fill="white"/>
<path d="M211.722 62.3596C211.722 62.3596 213.521 59.1624 214.515 60.9652C215.509 62.7679 214.118 66.5527 213.521 67.5487C212.925 68.5447 211.921 66.9511 211.921 66.9511" stroke="#263238" stroke-linecap="round" stroke-linejoin="round"/>
<path d="M212.607 61.752C212.607 67.3694 209.307 75.1283 205.231 75.1283C201.156 75.1283 197.866 67.3694 197.866 61.752C197.866 56.1346 201.166 51.5729 205.231 51.5729C209.297 51.5729 212.607 56.1346 212.607 61.752Z" fill="white" stroke="#263238" stroke-linecap="round" stroke-linejoin="round"/>
<path d="M211.036 58.9333C211.036 58.9333 210.529 60.3875 211.145 61.005C211.762 61.6225 211.662 62.5488 211.553 63.7938C211.444 65.0388 211.762 65.7858 212.179 65.3476C212.597 64.9093 213.004 59.1425 213.004 58.7341C213.004 58.3258 211.036 58.9333 211.036 58.9333Z" fill="#263238" stroke="#263238" stroke-linecap="round" stroke-linejoin="round"/>
<path d="M197.945 60.9054L198.154 64.1026C198.235 64.1321 198.321 64.1449 198.407 64.1402C198.492 64.1355 198.576 64.1134 198.654 64.0752C198.731 64.037 198.799 63.9836 198.855 63.9181C198.911 63.8526 198.953 63.7765 198.979 63.6942C199.188 63.0667 198.671 61.1046 199.188 60.0787C199.705 59.0528 201.663 58.525 201.782 57.768C201.901 57.011 200.788 55.7063 200.788 55.1884C200.788 54.6704 201.096 54.1924 203.681 56.6326C206.265 59.0728 210.996 59.6206 213.471 59.013C215.946 58.4054 212.955 54.6704 212.338 53.8438C211.722 53.0171 213.988 53.6346 212.746 51.5729C211.503 49.5112 207.179 48.1666 202.856 49.7104C198.532 51.2542 196.047 53.4354 196.663 55.6067C197.279 57.778 197.945 60.9054 197.945 60.9054Z" fill="#263238" stroke="#263238" stroke-linecap="round" stroke-linejoin="round"/>
<path d="M225.141 209.718C225.141 209.718 222.467 172.786 221.851 157.926C221.235 143.065 218.143 120.177 218.143 120.177L208.899 119.042H201.235L191.126 119.938C191.126 119.938 189.407 123.574 188.82 130.665C188.164 138.474 188.611 150.137 188.293 157.926C187.667 172.776 184.993 209.718 184.993 209.718L182.727 211.989V213.632L188.91 216.112L204.963 140.605L205.072 140.436L205.172 140.605L221.225 216.132L227.407 213.652V212.009L225.141 209.718Z" fill="#263238" stroke="#263238" stroke-linecap="round" stroke-linejoin="round"/>
<path d="M182.727 213.632L176.147 219.21V220.445H188.293L188.91 216.112L182.727 213.632Z" fill="#00A3BD" stroke="#263238" stroke-linecap="round" stroke-linejoin="round"/>
<path d="M188.293 220.445L188.462 219.21H176.147V220.445H188.293Z" fill="white" stroke="#263238" stroke-linecap="round" stroke-linejoin="round"/>
<path d="M227.199 213.632L233.789 219.21V220.445H221.642L221.026 216.112L227.199 213.632Z" fill="#00A3BD" stroke="#263238" stroke-linecap="round" stroke-linejoin="round"/>
<path d="M221.642 220.445L221.463 219.21H233.789V220.445H221.642Z" fill="white" stroke="#263238" stroke-linecap="round" stroke-linejoin="round"/>
<path d="M227.218 107.439L220.877 109.978L223.103 114.171L228.322 111.273L227.218 107.439Z" fill="white" stroke="#263238" stroke-linecap="round" stroke-linejoin="round"/>
<path d="M180.759 108.454L175.868 106.054C175.868 106.054 173.731 107.707 173.95 109.54C174.008 110.076 174.181 110.593 174.457 111.055C174.734 111.518 175.106 111.915 175.55 112.219L181.385 111.97L180.759 108.454Z" fill="white" stroke="#263238" stroke-linecap="round" stroke-linejoin="round"/>
<path d="M192.548 124.5H190.003L181.057 111.213C181.057 111.213 177.727 109.67 175.521 112.209L188.015 126.94L189.755 129.39L192.17 126.492L195.152 127.488L195.947 126.641L192.548 124.5Z" fill="white" stroke="#263238" stroke-linecap="round" stroke-linejoin="round"/>
<path d="M166.664 439.485C166.664 441.069 150.492 442.353 130.542 442.353C110.592 442.353 94.43 441.069 94.43 439.485C94.43 437.901 110.602 436.626 130.542 436.626C150.482 436.626 166.664 437.911 166.664 439.485Z" fill="#263238"/>
<path d="M109.638 431.786L116.586 437.662V438.967H103.774L104.668 432.662L109.638 431.786Z" fill="#00A3BD" stroke="#263238" stroke-linecap="round" stroke-linejoin="round"/>
<path d="M125.652 278.352C125.652 278.352 126.496 276.659 127.202 278.213C127.815 279.808 127.864 281.565 127.341 283.193C126.914 283.9 125.224 284.886 125.224 284.189C125.224 283.491 125.652 278.352 125.652 278.352Z" fill="white" stroke="#263238" stroke-linecap="round" stroke-linejoin="round"/>
<path d="M112.004 281.649C112.004 281.649 110.722 280.254 110.483 281.938C110.337 283.63 110.776 285.321 111.726 286.728C112.322 287.286 114.221 287.724 114.032 287.087C113.843 286.45 112.004 281.649 112.004 281.649Z" fill="white" stroke="#263238" stroke-linecap="round" stroke-linejoin="round"/>
<path d="M116.875 295.673C118.863 295.673 123.425 295.344 123.425 295.344L134.667 290.463L144.398 277.177L149.269 250.604C148.469 249.16 147.778 247.658 147.201 246.112C147.227 244.763 147.428 243.424 147.798 242.128C147.798 242.128 148.404 240.723 148.603 241.928C148.71 242.922 148.71 243.923 148.603 244.916L149.209 245.912C149.615 243.937 150.15 241.991 150.81 240.086C151.416 238.881 152.798 239.279 152.798 240.086C152.798 240.893 153.404 242.905 153.603 244.508C153.802 246.112 151.615 251.281 151.615 251.281L150.949 279.707C150.949 279.707 136.844 302.415 136.039 303.252C135.234 304.089 135.363 321.419 135.204 324.108C135.045 326.798 136.198 331.847 135.87 332.853C135.542 333.859 134.021 336.558 128.991 337.734C123.962 338.909 114.718 338.072 113.714 336.897C112.71 335.722 112.72 332.355 112.72 332.355C112.72 332.355 107.64 317.276 107.64 315.921C107.64 315.134 106.308 309.517 105.205 305.015C104.819 303.427 105.054 301.751 105.862 300.33C106.669 298.91 107.988 297.853 109.549 297.376C111.945 296.627 114.394 296.058 116.875 295.673Z" fill="white" stroke="#263238" stroke-linecap="round" stroke-linejoin="round"/>
<path d="M123.425 295.344L134.667 290.463L144.398 277.177L148.533 254.647L151.515 254.737L150.929 279.697C150.929 279.697 136.824 302.406 136.019 303.242C135.214 304.079 135.343 321.409 135.184 324.098C135.025 326.788 136.178 331.837 135.85 332.843C135.522 333.849 134.001 336.548 128.972 337.724C123.942 338.899 114.698 338.062 113.694 336.887C112.69 335.712 112.7 332.345 112.7 332.345C112.7 332.345 107.62 317.266 107.62 315.911C107.62 315.134 106.318 309.636 105.225 305.164C104.827 303.534 105.066 301.812 105.894 300.353C106.722 298.894 108.076 297.807 109.678 297.316C112.04 296.59 114.452 296.041 116.894 295.673C118.892 295.673 123.425 295.344 123.425 295.344Z" fill="#00A3BD" stroke="#263238" stroke-linecap="round" stroke-linejoin="round"/>
<path d="M122.749 291.3C123.968 291.959 125.146 292.691 126.278 293.491C126.775 293.999 129.26 302.575 129.26 302.575L123.882 299.587L118.008 304.298C118.008 304.298 115.831 297.904 116.02 295.553C116.13 294.782 116.395 294.042 116.798 293.376C117.201 292.71 117.734 292.133 118.366 291.679L122.749 291.3Z" fill="white" stroke="#263238" stroke-linecap="round" stroke-linejoin="round"/>
<path d="M123.425 290.633L123.584 303.919L117.55 291.808L123.425 290.633Z" fill="white" stroke="#263238" stroke-linecap="round" stroke-linejoin="round"/>
<path d="M112.113 282.565C113.018 287.774 117.332 294.408 121.059 293.75C124.787 293.093 126.626 285.374 125.721 280.165C124.817 274.956 121.01 271.281 117.242 271.948C113.475 272.615 111.199 277.356 112.113 282.565Z" fill="white" stroke="#263238" stroke-linecap="round" stroke-linejoin="round"/>
<path d="M126.009 281.539C126.009 281.539 124.518 282.007 124.727 281.45C124.746 280.657 124.608 279.868 124.32 279.129C123.906 278.913 123.562 278.585 123.326 278.183C122.888 277.466 123.465 276.251 123.326 275.324C123.186 274.398 118.713 277.087 117.938 277.227C117.163 277.366 112.66 277.037 112.66 277.037C112.66 277.037 113.922 279.677 113.515 280.075C113.107 280.474 113.038 281.908 113.038 281.908C113.41 282.837 113.686 283.801 113.863 284.786C113.783 285.274 112.869 285.782 112.68 285.314C112.491 284.846 111.745 280.862 111.745 280.862C111.745 280.862 110.692 281.201 110.314 279.039C109.936 276.878 110.314 271.868 112.302 270.563C114.29 269.259 119.26 268.392 121.427 269.119C123.594 269.846 125.87 274.557 125.711 276.33C125.671 278.072 125.771 279.814 126.009 281.539Z" fill="#263238" stroke="#263238" stroke-linecap="round" stroke-linejoin="round"/>
<path d="M116.586 437.662V438.967H103.774L104.042 437.085H115.91L116.586 437.662Z" fill="white" stroke="#263238" stroke-linecap="round" stroke-linejoin="round"/>
<path d="M140.78 431.258L148.891 437.662V438.967H135.273L136.168 431.457L140.78 431.258Z" fill="#00A3BD" stroke="#263238" stroke-linecap="round" stroke-linejoin="round"/>
<path d="M148.891 437.662V438.967H135.273L135.542 437.085H148.205L148.891 437.662Z" fill="white" stroke="#263238" stroke-linecap="round" stroke-linejoin="round"/>
<path d="M135.84 332.843C135.84 332.843 140.174 354.666 141.387 363.311C142.599 371.956 143.593 395.671 143.593 404.316C143.593 412.962 140.78 431.268 140.78 431.268L136.168 431.467C136.168 431.467 132.192 383.659 130.95 380.004C129.707 376.349 126.974 365.93 126.974 365.93C126.974 365.93 123.763 391.826 123.365 394.884C122.968 397.942 109.479 432.264 109.479 432.264L104.668 432.662C104.668 432.662 112.491 394.466 112.69 391.826C112.889 389.187 111.089 352.823 112.093 346.389C113.097 339.955 113.694 335.742 113.694 335.742C113.694 335.742 127.898 337.764 135.84 332.843Z" fill="#263238" stroke="#263238" stroke-linecap="round" stroke-linejoin="round"/>
<path d="M126.934 365.92L128.345 353.052" stroke="white" stroke-linecap="round" stroke-linejoin="round"/>
<path d="M107.779 300.085C107.779 300.085 104.131 303.312 106.557 307.565C108.197 310.423 123.455 332.286 125.94 332.973C128.425 333.66 156.893 333.132 156.893 333.132L163.175 332.784L167.956 330.035L161.644 329.845C161.644 329.845 165.62 327.704 163.722 327.804C161.823 327.903 155.7 331.28 155.7 331.28L129.131 326.479L118.733 307.067" fill="#00A3BD"/>
<path d="M107.779 300.085C107.779 300.085 104.131 303.312 106.557 307.565C108.197 310.423 123.455 332.286 125.94 332.973C128.425 333.66 156.893 333.132 156.893 333.132L163.175 332.784L167.956 330.035L161.644 329.845C161.644 329.845 165.62 327.704 163.722 327.804C161.823 327.903 155.7 331.28 155.7 331.28L129.131 326.479L118.733 307.067" stroke="#263238" stroke-linecap="round" stroke-linejoin="round"/>
<path d="M163.722 327.803C161.803 327.913 155.7 331.28 155.7 331.28L155.144 331.18L155.253 333.172H156.893L163.175 332.823L167.956 330.074L161.644 329.885C161.644 329.885 165.63 327.684 163.722 327.803Z" fill="white" stroke="#263238" stroke-linecap="round" stroke-linejoin="round"/>
<path d="M349.5 236.291H270.457C266.483 236.291 263.261 239.52 263.261 243.502V322.704C263.261 326.687 266.483 329.915 270.457 329.915H349.5C353.475 329.915 356.697 326.687 356.697 322.704V243.502C356.697 239.52 353.475 236.291 349.5 236.291Z" fill="#263238"/>
<path d="M353.983 281.868L338.527 260.056L314.581 296.649L290.248 287.207L269.791 321.459C269.41 322.098 269.205 322.828 269.196 323.572C269.188 324.317 269.377 325.051 269.743 325.699C270.11 326.347 270.642 326.886 271.284 327.261C271.926 327.636 272.656 327.833 273.4 327.833H346.797C348.705 327.833 350.536 327.074 351.885 325.721C353.235 324.369 353.993 322.535 353.993 320.622L353.983 281.868Z" fill="white"/>
<path d="M287.773 267.575C293.296 267.575 297.773 263.089 297.773 257.556C297.773 252.022 293.296 247.536 287.773 247.536C282.25 247.536 277.773 252.022 277.773 257.556C277.773 263.089 282.25 267.575 287.773 267.575Z" fill="white"/>
<path d="M305.536 319.019C305.571 318.532 305.789 318.076 306.145 317.743C306.502 317.41 306.972 317.225 307.459 317.225C307.947 317.225 308.416 317.41 308.773 317.743C309.13 318.076 309.347 318.532 309.382 319.019C309.401 319.284 309.366 319.549 309.278 319.8C309.19 320.05 309.051 320.28 308.871 320.474C308.69 320.668 308.472 320.823 308.229 320.929C307.986 321.035 307.724 321.09 307.459 321.09C307.194 321.09 306.932 321.035 306.689 320.929C306.446 320.823 306.228 320.668 306.047 320.474C305.867 320.28 305.728 320.05 305.64 319.8C305.552 319.549 305.517 319.284 305.536 319.019Z" fill="#263238"/>
<path d="M323.11 315.463C323.153 316.182 323.046 316.903 322.796 317.579C322.547 318.254 322.159 318.871 321.659 319.389C321.159 319.907 320.557 320.315 319.891 320.587C319.226 320.859 318.511 320.99 317.792 320.971C317.195 321 316.599 320.899 316.045 320.675C315.491 320.452 314.992 320.111 314.581 319.676V324.656H311.49V310.115H314.472V311.34C314.89 310.872 315.409 310.504 315.989 310.264C316.569 310.025 317.195 309.919 317.822 309.955C318.538 309.939 319.251 310.071 319.914 310.345C320.577 310.619 321.176 311.028 321.673 311.545C322.17 312.063 322.554 312.679 322.802 313.353C323.049 314.027 323.154 314.746 323.11 315.463ZM319.979 315.463C319.928 314.937 319.727 314.437 319.399 314.023C319.07 313.609 318.629 313.3 318.128 313.133C317.628 312.966 317.09 312.948 316.579 313.082C316.069 313.215 315.608 313.494 315.253 313.885C314.898 314.276 314.664 314.762 314.579 315.284C314.494 315.806 314.563 316.341 314.776 316.824C314.989 317.308 315.338 317.719 315.779 318.008C316.221 318.297 316.737 318.451 317.265 318.451C317.646 318.456 318.024 318.38 318.373 318.228C318.723 318.076 319.036 317.851 319.293 317.569C319.549 317.286 319.743 316.953 319.861 316.59C319.979 316.227 320.019 315.843 319.979 315.463Z" fill="#263238"/>
<path d="M336.091 314.736V320.861H332.99V315.214C332.99 313.481 332.195 312.684 330.833 312.684C329.471 312.684 328.268 313.601 328.268 315.573V320.861H325.177V310.115H328.159V311.36C328.619 310.892 329.171 310.525 329.781 310.283C330.39 310.042 331.043 309.93 331.698 309.955C334.183 309.955 336.091 311.419 336.091 314.736Z" fill="#263238"/>
<path d="M350.017 310.115V319.019C350.017 323.003 347.87 324.825 344.053 324.825C342.195 324.903 340.361 324.386 338.815 323.351L340.047 321.13C341.145 321.92 342.463 322.342 343.815 322.335C345.992 322.335 346.946 321.339 346.946 319.417V318.959C346.511 319.409 345.986 319.761 345.405 319.992C344.824 320.222 344.2 320.325 343.576 320.294C342.208 320.294 340.896 319.749 339.928 318.78C338.961 317.81 338.417 316.495 338.417 315.124C338.417 313.753 338.961 312.439 339.928 311.469C340.896 310.5 342.208 309.955 343.576 309.955C344.242 309.917 344.908 310.035 345.52 310.3C346.133 310.564 346.675 310.968 347.105 311.479V310.115H350.017ZM346.956 315.095C346.996 314.529 346.865 313.965 346.58 313.476C346.295 312.987 345.87 312.594 345.36 312.351C344.849 312.107 344.277 312.023 343.719 312.11C343.16 312.197 342.64 312.45 342.227 312.837C341.815 313.225 341.528 313.727 341.405 314.28C341.281 314.833 341.327 315.41 341.536 315.937C341.745 316.463 342.107 316.914 342.576 317.231C343.044 317.548 343.597 317.717 344.163 317.714C344.519 317.741 344.877 317.695 345.214 317.577C345.552 317.46 345.861 317.273 346.123 317.03C346.386 316.787 346.595 316.492 346.738 316.164C346.881 315.836 346.955 315.482 346.956 315.124V315.095Z" fill="#263238"/>
<path d="M234.455 236.291H155.412C151.437 236.291 148.215 239.52 148.215 243.502V322.704C148.215 326.687 151.437 329.915 155.412 329.915H234.455C238.429 329.915 241.651 326.687 241.651 322.704V243.502C241.651 239.52 238.429 236.291 234.455 236.291Z" fill="#263238"/>
<path d="M238.938 281.868L223.481 260.056L199.536 296.649L175.193 287.207L154.736 321.459C154.355 322.098 154.15 322.826 154.141 323.57C154.132 324.314 154.32 325.047 154.685 325.695C155.051 326.342 155.581 326.881 156.222 327.257C156.863 327.633 157.592 327.831 158.334 327.833H231.741C233.65 327.833 235.48 327.074 236.83 325.721C238.18 324.369 238.938 322.535 238.938 320.622V281.868Z" fill="white"/>
<path d="M172.727 267.575C178.25 267.575 182.727 263.089 182.727 257.556C182.727 252.022 178.25 247.536 172.727 247.536C167.205 247.536 162.728 252.022 162.728 257.556C162.728 263.089 167.205 267.575 172.727 267.575Z" fill="white"/>
<path d="M195.073 319.108C195.073 318.546 195.296 318.006 195.693 317.608C196.09 317.21 196.628 316.987 197.19 316.987C197.751 316.987 198.29 317.21 198.687 317.608C199.084 318.006 199.307 318.546 199.307 319.108C199.307 319.387 199.252 319.663 199.146 319.92C199.039 320.178 198.883 320.412 198.687 320.609C198.49 320.806 198.257 320.962 198 321.068C197.743 321.175 197.468 321.23 197.19 321.23C196.912 321.23 196.636 321.175 196.379 321.068C196.123 320.962 195.889 320.806 195.693 320.609C195.496 320.412 195.34 320.178 195.234 319.92C195.127 319.663 195.073 319.387 195.073 319.108Z" fill="#263238"/>
<path d="M198.243 324.836L199.158 322.365C199.585 322.648 200.087 322.794 200.599 322.784C201.444 322.784 201.991 322.236 201.991 321.081V309.318H205.39V321.051C205.447 321.647 205.371 322.249 205.169 322.813C204.967 323.377 204.643 323.89 204.221 324.314C203.799 324.738 203.288 325.064 202.725 325.268C202.163 325.471 201.562 325.548 200.967 325.493C200.015 325.54 199.07 325.312 198.243 324.836ZM201.573 305.772C201.585 305.507 201.649 305.247 201.762 305.006C201.875 304.766 202.035 304.551 202.232 304.374C202.429 304.197 202.66 304.061 202.91 303.974C203.161 303.888 203.426 303.852 203.69 303.87C203.951 303.841 204.216 303.866 204.466 303.944C204.717 304.022 204.949 304.151 205.148 304.323C205.347 304.495 205.508 304.706 205.621 304.944C205.735 305.181 205.798 305.439 205.808 305.702C205.766 306.231 205.529 306.725 205.144 307.088C204.758 307.451 204.251 307.657 203.722 307.665C203.193 307.674 202.68 307.485 202.282 307.135C201.885 306.785 201.632 306.299 201.573 305.772Z" fill="#263238"/>
<path d="M221.314 315.194C221.363 315.985 221.246 316.778 220.973 317.521C220.699 318.265 220.273 318.943 219.723 319.512C219.174 320.082 218.511 320.531 217.779 320.83C217.047 321.129 216.26 321.272 215.469 321.25C214.813 321.283 214.158 321.173 213.549 320.927C212.939 320.681 212.391 320.305 211.941 319.826V325.314H208.541V309.318H211.782V310.672C212.241 310.156 212.812 309.75 213.451 309.486C214.09 309.222 214.78 309.107 215.469 309.148C216.259 309.126 217.045 309.269 217.776 309.568C218.508 309.866 219.17 310.314 219.72 310.882C220.269 311.451 220.695 312.128 220.969 312.87C221.244 313.613 221.361 314.404 221.314 315.194ZM217.875 315.194C217.823 314.618 217.605 314.068 217.247 313.614C216.889 313.159 216.408 312.818 215.86 312.633C215.313 312.447 214.724 312.425 214.164 312.569C213.604 312.713 213.098 313.016 212.708 313.443C212.317 313.87 212.058 314.401 211.963 314.972C211.869 315.543 211.941 316.13 212.173 316.66C212.404 317.191 212.785 317.642 213.267 317.96C213.75 318.278 214.315 318.449 214.893 318.451C215.308 318.453 215.719 318.368 216.1 318.201C216.48 318.034 216.822 317.79 217.102 317.483C217.383 317.176 217.597 316.815 217.73 316.42C217.863 316.026 217.912 315.609 217.875 315.194Z" fill="#263238"/>
<path d="M235.697 309.318V319.108C235.697 323.481 233.342 325.493 229.107 325.493C227.065 325.578 225.049 325.009 223.352 323.869L224.704 321.429C225.909 322.303 227.361 322.77 228.849 322.764C231.244 322.764 232.288 321.668 232.288 319.547V319.039C231.815 319.53 231.244 319.916 230.612 320.17C229.979 320.424 229.301 320.541 228.62 320.513C227.855 320.545 227.092 320.422 226.376 320.151C225.66 319.879 225.006 319.466 224.454 318.935C223.902 318.405 223.462 317.767 223.162 317.062C222.862 316.356 222.707 315.597 222.707 314.831C222.707 314.064 222.862 313.305 223.162 312.599C223.462 311.894 223.902 311.257 224.454 310.726C225.006 310.195 225.66 309.782 226.376 309.511C227.092 309.24 227.855 309.116 228.62 309.148C229.353 309.105 230.086 309.233 230.761 309.523C231.436 309.814 232.034 310.259 232.507 310.822V309.318H235.697ZM232.338 314.826C232.379 314.205 232.234 313.587 231.92 313.05C231.607 312.514 231.139 312.085 230.579 311.818C230.018 311.552 229.391 311.46 228.778 311.556C228.165 311.651 227.594 311.93 227.141 312.354C226.688 312.779 226.373 313.331 226.237 313.937C226.101 314.544 226.15 315.177 226.378 315.755C226.607 316.334 227.003 316.829 227.516 317.179C228.029 317.528 228.636 317.715 229.256 317.714C229.652 317.744 230.049 317.692 230.424 317.56C230.798 317.429 231.141 317.22 231.431 316.949C231.72 316.677 231.951 316.348 232.107 315.983C232.263 315.617 232.341 315.223 232.338 314.826Z" fill="#263238"/>
<path d="M205.569 213.841V134.639C205.569 132.727 206.327 130.893 207.677 129.54C209.027 128.188 210.857 127.428 212.766 127.428H291.809C293.717 127.428 295.548 128.188 296.897 129.54C298.247 130.893 299.005 132.727 299.005 134.639V213.841C299.005 215.754 298.247 217.588 296.897 218.94C295.548 220.293 293.717 221.052 291.809 221.052H212.766C210.857 221.052 209.027 220.293 207.677 218.94C206.327 217.588 205.569 215.754 205.569 213.841Z" fill="#263238"/>
<path d="M223.173 182.168C223.217 181.386 223.559 180.651 224.127 180.113C224.695 179.575 225.448 179.275 226.229 179.275C227.011 179.275 227.763 179.575 228.332 180.113C228.9 180.651 229.241 181.386 229.286 182.168C229.31 182.585 229.248 183.003 229.105 183.395C228.962 183.787 228.741 184.146 228.455 184.45C228.169 184.753 227.824 184.995 227.441 185.16C227.059 185.326 226.646 185.411 226.229 185.411C225.813 185.411 225.4 185.326 225.018 185.16C224.635 184.995 224.29 184.753 224.004 184.45C223.718 184.146 223.496 183.787 223.353 183.395C223.211 183.003 223.149 182.585 223.173 182.168Z" fill="white"/>
<path d="M231.135 176.521C231.135 171.412 235.111 167.786 240.578 167.786C244.136 167.786 246.939 169.33 248.162 172.099L244.355 174.151C244 173.446 243.455 172.854 242.783 172.442C242.11 172.03 241.336 171.815 240.548 171.82C239.356 171.898 238.239 172.427 237.423 173.3C236.606 174.173 236.152 175.325 236.152 176.521C236.152 177.718 236.606 178.869 237.423 179.742C238.239 180.615 239.356 181.144 240.548 181.222C241.339 181.235 242.117 181.021 242.791 180.607C243.465 180.192 244.008 179.594 244.355 178.882L248.162 180.963C246.939 183.682 244.186 185.256 240.578 185.256C235.071 185.256 231.135 181.631 231.135 176.521Z" fill="white"/>
<path d="M249.365 183.423L250.995 179.898C252.775 180.959 254.807 181.523 256.879 181.531C259.146 181.531 260.001 180.933 260.001 179.987C260.001 177.208 249.772 180.047 249.772 173.274C249.772 170.057 252.665 167.786 257.605 167.786C259.866 167.739 262.104 168.245 264.126 169.26L262.486 172.766C260.998 171.923 259.314 171.486 257.605 171.501C255.408 171.501 254.464 172.198 254.464 173.085C254.464 175.983 264.692 173.175 264.692 179.858C264.692 183.015 261.71 185.256 256.691 185.256C254.13 185.307 251.601 184.674 249.365 183.423Z" fill="white"/>
<path d="M266.074 183.423L267.704 179.898C269.488 180.959 271.523 181.523 273.598 181.531C275.865 181.531 276.71 180.933 276.71 179.987C276.71 177.208 266.481 180.047 266.481 173.274C266.481 170.057 269.374 167.786 274.314 167.786C276.575 167.739 278.813 168.245 280.835 169.26L279.195 172.766C277.707 171.922 276.024 171.486 274.314 171.501C272.117 171.501 271.173 172.198 271.173 173.085C271.173 175.983 281.401 173.175 281.401 179.858C281.401 183.015 278.419 185.256 273.449 185.256C270.872 185.315 268.325 184.682 266.074 183.423Z" fill="white"/>
<path d="M205.569 431.756V352.584C205.569 350.672 206.327 348.837 207.677 347.485C209.027 346.133 210.857 345.373 212.766 345.373H291.809C293.717 345.373 295.548 346.133 296.897 347.485C298.247 348.837 299.005 350.672 299.005 352.584V431.786C299.005 432.733 298.819 433.671 298.457 434.545C298.096 435.42 297.566 436.215 296.897 436.885C296.229 437.555 295.436 438.086 294.563 438.448C293.689 438.81 292.754 438.997 291.809 438.997H212.766C211.818 438.997 210.88 438.809 210.005 438.445C209.13 438.081 208.335 437.547 207.666 436.874C206.998 436.202 206.468 435.403 206.108 434.525C205.748 433.646 205.565 432.706 205.569 431.756Z" fill="#263238"/>
<path d="M235.399 397.932C235.399 397.076 235.738 396.255 236.342 395.65C236.946 395.045 237.765 394.705 238.62 394.705C239.474 394.705 240.293 395.045 240.897 395.65C241.501 396.255 241.84 397.076 241.84 397.932C241.84 398.788 241.501 399.609 240.897 400.214C240.293 400.819 239.474 401.159 238.62 401.159C237.765 401.159 236.946 400.819 236.342 400.214C235.738 399.609 235.399 398.788 235.399 397.932Z" fill="white"/>
<path d="M240.21 406.647L241.602 402.892C242.253 403.32 243.019 403.539 243.798 403.519C245.091 403.519 245.916 402.693 245.916 400.93V383.002H251.094V400.89C251.094 405.023 248.679 407.643 244.355 407.643C242.906 407.718 241.467 407.372 240.21 406.647ZM245.289 377.643C245.3 377.238 245.393 376.838 245.563 376.47C245.733 376.101 245.976 375.772 246.278 375.5C246.579 375.229 246.932 375.022 247.316 374.892C247.7 374.763 248.106 374.712 248.51 374.745C250.438 374.745 251.73 375.94 251.73 377.544C251.68 378.358 251.326 379.123 250.737 379.686C250.149 380.249 249.37 380.569 248.556 380.581C247.742 380.594 246.954 380.298 246.348 379.754C245.743 379.209 245.364 378.455 245.289 377.643Z" fill="white"/>
<path d="M254.156 399.267L255.875 395.542C257.756 396.66 259.901 397.255 262.088 397.265C264.474 397.265 265.378 396.637 265.378 395.641C265.378 392.713 254.583 395.701 254.583 388.55C254.583 385.163 257.635 382.763 262.853 382.763C265.236 382.718 267.593 383.255 269.722 384.327L267.992 388.022C266.426 387.134 264.653 386.673 262.853 386.687C260.527 386.687 259.533 387.424 259.533 388.35C259.533 391.408 270.318 388.45 270.318 395.502C270.318 398.828 267.237 401.199 261.889 401.199C259.187 401.248 256.519 400.582 254.156 399.267Z" fill="white"/>
<path d="M341.639 456H340.281V445.969H341.639V456ZM343.801 456V448.909H344.55C344.728 448.909 344.837 448.995 344.879 449.168L344.97 449.896C345.232 449.574 345.526 449.31 345.852 449.105C346.179 448.9 346.557 448.797 346.986 448.797C347.462 448.797 347.847 448.93 348.141 449.196C348.44 449.462 348.655 449.821 348.785 450.274C348.888 450.017 349.019 449.796 349.177 449.609C349.341 449.422 349.523 449.268 349.723 449.147C349.924 449.026 350.136 448.937 350.36 448.881C350.589 448.825 350.82 448.797 351.053 448.797C351.427 448.797 351.758 448.858 352.047 448.979C352.341 449.096 352.589 449.268 352.789 449.497C352.995 449.726 353.151 450.008 353.258 450.344C353.366 450.675 353.419 451.056 353.419 451.485V456H352.166V451.485C352.166 450.93 352.045 450.51 351.802 450.225C351.56 449.936 351.21 449.791 350.752 449.791C350.547 449.791 350.351 449.828 350.164 449.903C349.982 449.973 349.821 450.078 349.681 450.218C349.541 450.358 349.429 450.535 349.345 450.75C349.266 450.96 349.226 451.205 349.226 451.485V456H347.973V451.485C347.973 450.916 347.859 450.491 347.63 450.211C347.402 449.931 347.068 449.791 346.629 449.791C346.321 449.791 346.037 449.875 345.775 450.043C345.514 450.206 345.274 450.43 345.054 450.715V456H343.801ZM359.156 452.808C358.582 452.827 358.092 452.873 357.686 452.948C357.285 453.018 356.956 453.111 356.699 453.228C356.447 453.345 356.263 453.482 356.146 453.641C356.034 453.8 355.978 453.977 355.978 454.173C355.978 454.36 356.009 454.521 356.069 454.656C356.13 454.791 356.212 454.903 356.314 454.992C356.422 455.076 356.545 455.139 356.685 455.181C356.83 455.218 356.984 455.237 357.147 455.237C357.367 455.237 357.567 455.216 357.749 455.174C357.931 455.127 358.102 455.062 358.26 454.978C358.424 454.894 358.578 454.794 358.722 454.677C358.872 454.56 359.016 454.427 359.156 454.278V452.808ZM355.131 449.91C355.523 449.532 355.946 449.25 356.398 449.063C356.851 448.876 357.353 448.783 357.903 448.783C358.3 448.783 358.652 448.848 358.96 448.979C359.268 449.11 359.527 449.292 359.737 449.525C359.947 449.758 360.106 450.041 360.213 450.372C360.321 450.703 360.374 451.067 360.374 451.464V456H359.821C359.7 456 359.607 455.981 359.541 455.944C359.476 455.902 359.425 455.823 359.387 455.706L359.247 455.034C359.061 455.207 358.879 455.361 358.701 455.496C358.524 455.627 358.337 455.739 358.141 455.832C357.945 455.921 357.735 455.988 357.511 456.035C357.292 456.086 357.047 456.112 356.776 456.112C356.501 456.112 356.242 456.075 355.999 456C355.757 455.921 355.544 455.804 355.362 455.65C355.185 455.496 355.043 455.302 354.935 455.069C354.833 454.831 354.781 454.551 354.781 454.229C354.781 453.949 354.858 453.681 355.012 453.424C355.166 453.163 355.416 452.932 355.761 452.731C356.107 452.53 356.557 452.367 357.112 452.241C357.668 452.11 358.349 452.036 359.156 452.017V451.464C359.156 450.913 359.037 450.498 358.799 450.218C358.561 449.933 358.214 449.791 357.756 449.791C357.448 449.791 357.189 449.831 356.979 449.91C356.774 449.985 356.594 450.071 356.44 450.169C356.291 450.262 356.16 450.349 356.048 450.428C355.941 450.503 355.834 450.54 355.726 450.54C355.642 450.54 355.57 450.519 355.509 450.477C355.449 450.43 355.397 450.374 355.355 450.309L355.131 449.91ZM364.743 452.535C364.995 452.535 365.217 452.5 365.408 452.43C365.599 452.36 365.76 452.262 365.891 452.136C366.022 452.01 366.12 451.861 366.185 451.688C366.25 451.511 366.283 451.317 366.283 451.107C366.283 450.673 366.15 450.328 365.884 450.071C365.623 449.814 365.242 449.686 364.743 449.686C364.239 449.686 363.854 449.814 363.588 450.071C363.327 450.328 363.196 450.673 363.196 451.107C363.196 451.317 363.229 451.511 363.294 451.688C363.364 451.861 363.464 452.01 363.595 452.136C363.726 452.262 363.887 452.36 364.078 452.43C364.269 452.5 364.491 452.535 364.743 452.535ZM366.99 456.385C366.99 456.212 366.941 456.072 366.843 455.965C366.745 455.858 366.612 455.774 366.444 455.713C366.281 455.652 366.089 455.61 365.87 455.587C365.651 455.559 365.417 455.538 365.17 455.524C364.927 455.51 364.68 455.496 364.428 455.482C364.176 455.468 363.933 455.445 363.7 455.412C363.439 455.533 363.224 455.687 363.056 455.874C362.893 456.056 362.811 456.271 362.811 456.518C362.811 456.677 362.851 456.824 362.93 456.959C363.014 457.099 363.14 457.218 363.308 457.316C363.476 457.419 363.686 457.498 363.938 457.554C364.195 457.615 364.496 457.645 364.841 457.645C365.177 457.645 365.478 457.615 365.744 457.554C366.01 457.493 366.234 457.407 366.416 457.295C366.603 457.183 366.745 457.05 366.843 456.896C366.941 456.742 366.99 456.572 366.99 456.385ZM368.257 449.189V449.651C368.257 449.805 368.159 449.903 367.963 449.945L367.158 450.05C367.317 450.358 367.396 450.699 367.396 451.072C367.396 451.417 367.328 451.732 367.193 452.017C367.062 452.297 366.88 452.537 366.647 452.738C366.414 452.939 366.134 453.093 365.807 453.2C365.48 453.307 365.126 453.361 364.743 453.361C364.412 453.361 364.099 453.321 363.805 453.242C363.656 453.335 363.541 453.436 363.462 453.543C363.383 453.646 363.343 453.751 363.343 453.858C363.343 454.026 363.411 454.154 363.546 454.243C363.686 454.327 363.868 454.388 364.092 454.425C364.316 454.462 364.57 454.486 364.855 454.495C365.144 454.504 365.438 454.521 365.737 454.544C366.04 454.563 366.334 454.598 366.619 454.649C366.908 454.7 367.165 454.784 367.389 454.901C367.613 455.018 367.793 455.179 367.928 455.384C368.068 455.589 368.138 455.855 368.138 456.182C368.138 456.485 368.061 456.779 367.907 457.064C367.758 457.349 367.541 457.601 367.256 457.82C366.971 458.044 366.621 458.221 366.206 458.352C365.795 458.487 365.331 458.555 364.813 458.555C364.295 458.555 363.842 458.504 363.455 458.401C363.068 458.298 362.746 458.161 362.489 457.988C362.232 457.815 362.039 457.615 361.908 457.386C361.782 457.162 361.719 456.926 361.719 456.679C361.719 456.329 361.829 456.033 362.048 455.79C362.267 455.547 362.568 455.354 362.951 455.209C362.741 455.116 362.573 454.992 362.447 454.838C362.326 454.679 362.265 454.467 362.265 454.201C362.265 454.098 362.284 453.993 362.321 453.886C362.358 453.774 362.414 453.664 362.489 453.557C362.568 453.445 362.664 453.34 362.776 453.242C362.888 453.144 363.019 453.058 363.168 452.983C362.818 452.787 362.545 452.528 362.349 452.206C362.153 451.879 362.055 451.501 362.055 451.072C362.055 450.727 362.12 450.414 362.251 450.134C362.386 449.849 362.573 449.609 362.811 449.413C363.049 449.212 363.331 449.058 363.658 448.951C363.989 448.844 364.351 448.79 364.743 448.79C365.051 448.79 365.338 448.825 365.604 448.895C365.87 448.96 366.113 449.058 366.332 449.189H368.257ZM374.182 451.681C374.182 451.392 374.14 451.128 374.056 450.89C373.977 450.647 373.858 450.44 373.699 450.267C373.545 450.09 373.356 449.954 373.132 449.861C372.908 449.763 372.654 449.714 372.369 449.714C371.772 449.714 371.298 449.889 370.948 450.239C370.603 450.584 370.388 451.065 370.304 451.681H374.182ZM375.19 455.006C375.036 455.193 374.852 455.356 374.637 455.496C374.423 455.631 374.192 455.743 373.944 455.832C373.702 455.921 373.45 455.986 373.188 456.028C372.927 456.075 372.668 456.098 372.411 456.098C371.921 456.098 371.469 456.016 371.053 455.853C370.643 455.685 370.286 455.442 369.982 455.125C369.684 454.803 369.45 454.406 369.282 453.935C369.114 453.464 369.03 452.922 369.03 452.311C369.03 451.816 369.105 451.354 369.254 450.925C369.408 450.496 369.628 450.125 369.912 449.812C370.197 449.495 370.545 449.247 370.955 449.07C371.366 448.888 371.828 448.797 372.341 448.797C372.766 448.797 373.158 448.869 373.517 449.014C373.881 449.154 374.194 449.359 374.455 449.63C374.721 449.896 374.929 450.227 375.078 450.624C375.228 451.016 375.302 451.464 375.302 451.968C375.302 452.164 375.281 452.295 375.239 452.36C375.197 452.425 375.118 452.458 375.001 452.458H370.262C370.276 452.906 370.337 453.296 370.444 453.627C370.556 453.958 370.71 454.236 370.906 454.46C371.102 454.679 371.336 454.845 371.606 454.957C371.877 455.064 372.18 455.118 372.516 455.118C372.829 455.118 373.097 455.083 373.321 455.013C373.55 454.938 373.746 454.859 373.909 454.775C374.073 454.691 374.208 454.614 374.315 454.544C374.427 454.469 374.523 454.432 374.602 454.432C374.705 454.432 374.784 454.472 374.84 454.551L375.19 455.006ZM381.668 454.292C381.896 454.6 382.146 454.817 382.417 454.943C382.692 455.069 382.993 455.132 383.32 455.132C383.987 455.132 384.498 454.896 384.853 454.425C385.207 453.954 385.385 453.251 385.385 452.318C385.385 451.45 385.226 450.813 384.909 450.407C384.596 449.996 384.148 449.791 383.565 449.791C383.159 449.791 382.804 449.884 382.501 450.071C382.202 450.258 381.924 450.521 381.668 450.862V454.292ZM381.668 449.931C381.966 449.586 382.302 449.31 382.676 449.105C383.054 448.9 383.488 448.797 383.978 448.797C384.393 448.797 384.766 448.876 385.098 449.035C385.434 449.194 385.718 449.425 385.952 449.728C386.185 450.027 386.362 450.391 386.484 450.82C386.61 451.249 386.673 451.732 386.673 452.269C386.673 452.843 386.603 453.366 386.463 453.837C386.323 454.308 386.12 454.712 385.854 455.048C385.592 455.379 385.273 455.638 384.895 455.825C384.517 456.007 384.092 456.098 383.621 456.098C383.154 456.098 382.76 456.012 382.438 455.839C382.12 455.662 381.843 455.412 381.605 455.09L381.542 455.734C381.504 455.911 381.397 456 381.22 456H380.415V445.689H381.668V449.931ZM394.189 448.909L390.234 458.093C390.192 458.186 390.138 458.261 390.073 458.317C390.012 458.373 389.917 458.401 389.786 458.401H388.862L390.157 455.587L387.231 448.909H388.309C388.416 448.909 388.5 448.937 388.561 448.993C388.626 449.044 388.671 449.103 388.694 449.168L390.591 453.634C390.666 453.83 390.729 454.035 390.78 454.25C390.845 454.031 390.915 453.823 390.99 453.627L392.831 449.168C392.859 449.093 392.906 449.033 392.971 448.986C393.041 448.935 393.118 448.909 393.202 448.909H394.189ZM403.955 447.537C403.913 447.607 403.866 447.661 403.815 447.698C403.768 447.731 403.71 447.747 403.64 447.747C403.561 447.747 403.467 447.707 403.36 447.628C403.253 447.549 403.117 447.462 402.954 447.369C402.795 447.271 402.602 447.182 402.373 447.103C402.149 447.024 401.876 446.984 401.554 446.984C401.251 446.984 400.982 447.026 400.749 447.11C400.52 447.189 400.327 447.299 400.168 447.439C400.014 447.579 399.897 447.745 399.818 447.936C399.739 448.123 399.699 448.326 399.699 448.545C399.699 448.825 399.767 449.058 399.902 449.245C400.042 449.427 400.224 449.583 400.448 449.714C400.677 449.845 400.933 449.959 401.218 450.057C401.507 450.15 401.801 450.248 402.1 450.351C402.403 450.454 402.697 450.57 402.982 450.701C403.271 450.827 403.528 450.988 403.752 451.184C403.981 451.38 404.163 451.62 404.298 451.905C404.438 452.19 404.508 452.54 404.508 452.955C404.508 453.394 404.433 453.807 404.284 454.194C404.135 454.577 403.915 454.91 403.626 455.195C403.341 455.48 402.989 455.704 402.569 455.867C402.154 456.03 401.68 456.112 401.148 456.112C400.495 456.112 399.902 455.995 399.37 455.762C398.838 455.524 398.383 455.204 398.005 454.803L398.397 454.159C398.434 454.108 398.479 454.066 398.53 454.033C398.586 453.996 398.647 453.977 398.712 453.977C398.773 453.977 398.84 454.003 398.915 454.054C398.994 454.101 399.083 454.161 399.181 454.236C399.279 454.311 399.391 454.392 399.517 454.481C399.643 454.57 399.785 454.651 399.944 454.726C400.107 454.801 400.292 454.864 400.497 454.915C400.702 454.962 400.933 454.985 401.19 454.985C401.512 454.985 401.799 454.941 402.051 454.852C402.303 454.763 402.515 454.64 402.688 454.481C402.865 454.318 403.001 454.124 403.094 453.9C403.187 453.676 403.234 453.426 403.234 453.151C403.234 452.848 403.164 452.6 403.024 452.409C402.889 452.213 402.709 452.05 402.485 451.919C402.261 451.788 402.004 451.679 401.715 451.59C401.426 451.497 401.132 451.403 400.833 451.31C400.534 451.212 400.24 451.1 399.951 450.974C399.662 450.848 399.405 450.685 399.181 450.484C398.957 450.283 398.775 450.034 398.635 449.735C398.5 449.432 398.432 449.058 398.432 448.615C398.432 448.26 398.5 447.917 398.635 447.586C398.775 447.255 398.976 446.961 399.237 446.704C399.503 446.447 399.827 446.242 400.21 446.088C400.597 445.934 401.041 445.857 401.54 445.857C402.1 445.857 402.609 445.946 403.066 446.123C403.528 446.3 403.934 446.557 404.284 446.893L403.955 447.537ZM407.994 456.112C407.434 456.112 407.002 455.956 406.699 455.643C406.4 455.33 406.251 454.88 406.251 454.292V449.952H405.397C405.322 449.952 405.259 449.931 405.208 449.889C405.157 449.842 405.131 449.772 405.131 449.679V449.182L406.293 449.035L406.58 446.844C406.594 446.774 406.624 446.718 406.671 446.676C406.722 446.629 406.788 446.606 406.867 446.606H407.497V449.049H409.548V449.952H407.497V454.208C407.497 454.507 407.569 454.728 407.714 454.873C407.859 455.018 408.045 455.09 408.274 455.09C408.405 455.09 408.517 455.074 408.61 455.041C408.708 455.004 408.792 454.964 408.862 454.922C408.932 454.88 408.99 454.843 409.037 454.81C409.088 454.773 409.133 454.754 409.17 454.754C409.235 454.754 409.294 454.794 409.345 454.873L409.709 455.468C409.494 455.669 409.235 455.827 408.932 455.944C408.629 456.056 408.316 456.112 407.994 456.112ZM413.783 448.797C414.301 448.797 414.767 448.883 415.183 449.056C415.598 449.229 415.953 449.474 416.247 449.791C416.541 450.108 416.765 450.493 416.919 450.946C417.077 451.394 417.157 451.896 417.157 452.451C417.157 453.011 417.077 453.515 416.919 453.963C416.765 454.411 416.541 454.794 416.247 455.111C415.953 455.428 415.598 455.673 415.183 455.846C414.767 456.014 414.301 456.098 413.783 456.098C413.26 456.098 412.789 456.014 412.369 455.846C411.953 455.673 411.599 455.428 411.305 455.111C411.011 454.794 410.784 454.411 410.626 453.963C410.472 453.515 410.395 453.011 410.395 452.451C410.395 451.896 410.472 451.394 410.626 450.946C410.784 450.493 411.011 450.108 411.305 449.791C411.599 449.474 411.953 449.229 412.369 449.056C412.789 448.883 413.26 448.797 413.783 448.797ZM413.783 455.125C414.483 455.125 415.005 454.892 415.351 454.425C415.696 453.954 415.869 453.298 415.869 452.458C415.869 451.613 415.696 450.955 415.351 450.484C415.005 450.013 414.483 449.777 413.783 449.777C413.428 449.777 413.118 449.838 412.852 449.959C412.59 450.08 412.371 450.255 412.194 450.484C412.021 450.713 411.89 450.995 411.802 451.331C411.718 451.662 411.676 452.038 411.676 452.458C411.676 453.298 411.848 453.954 412.194 454.425C412.544 454.892 413.073 455.125 413.783 455.125ZM419.92 450.33C420.144 449.845 420.419 449.467 420.746 449.196C421.073 448.921 421.472 448.783 421.943 448.783C422.092 448.783 422.235 448.799 422.37 448.832C422.51 448.865 422.634 448.916 422.741 448.986L422.65 449.917C422.622 450.034 422.552 450.092 422.44 450.092C422.375 450.092 422.279 450.078 422.153 450.05C422.027 450.022 421.885 450.008 421.726 450.008C421.502 450.008 421.301 450.041 421.124 450.106C420.951 450.171 420.795 450.269 420.655 450.4C420.52 450.526 420.396 450.685 420.284 450.876C420.177 451.063 420.079 451.277 419.99 451.52V456H418.737V448.909H419.451C419.586 448.909 419.68 448.935 419.731 448.986C419.782 449.037 419.817 449.126 419.836 449.252L419.92 450.33ZM429.955 448.909L426 458.093C425.958 458.186 425.904 458.261 425.839 458.317C425.778 458.373 425.682 458.401 425.552 458.401H424.628L425.923 455.587L422.997 448.909H424.075C424.182 448.909 424.266 448.937 424.327 448.993C424.392 449.044 424.436 449.103 424.46 449.168L426.357 453.634C426.431 453.83 426.494 454.035 426.546 454.25C426.611 454.031 426.681 453.823 426.756 453.627L428.597 449.168C428.625 449.093 428.671 449.033 428.737 448.986C428.807 448.935 428.884 448.909 428.968 448.909H429.955ZM435.062 450.078C435.006 450.181 434.92 450.232 434.803 450.232C434.733 450.232 434.654 450.206 434.565 450.155C434.477 450.104 434.367 450.048 434.236 449.987C434.11 449.922 433.959 449.863 433.781 449.812C433.604 449.756 433.394 449.728 433.151 449.728C432.941 449.728 432.752 449.756 432.584 449.812C432.416 449.863 432.272 449.936 432.15 450.029C432.034 450.122 431.943 450.232 431.877 450.358C431.817 450.479 431.786 450.612 431.786 450.757C431.786 450.939 431.838 451.091 431.94 451.212C432.048 451.333 432.188 451.438 432.36 451.527C432.533 451.616 432.729 451.695 432.948 451.765C433.168 451.83 433.392 451.903 433.62 451.982C433.854 452.057 434.08 452.141 434.299 452.234C434.519 452.327 434.715 452.444 434.887 452.584C435.06 452.724 435.198 452.897 435.3 453.102C435.408 453.303 435.461 453.545 435.461 453.83C435.461 454.157 435.403 454.46 435.286 454.74C435.17 455.015 434.997 455.256 434.768 455.461C434.54 455.662 434.26 455.82 433.928 455.937C433.597 456.054 433.214 456.112 432.78 456.112C432.286 456.112 431.838 456.033 431.436 455.874C431.035 455.711 430.694 455.503 430.414 455.251L430.708 454.775C430.746 454.714 430.79 454.668 430.841 454.635C430.893 454.602 430.958 454.586 431.037 454.586C431.121 454.586 431.21 454.619 431.303 454.684C431.397 454.749 431.509 454.822 431.639 454.901C431.775 454.98 431.938 455.053 432.129 455.118C432.321 455.183 432.559 455.216 432.843 455.216C433.086 455.216 433.298 455.186 433.48 455.125C433.662 455.06 433.814 454.973 433.935 454.866C434.057 454.759 434.145 454.635 434.201 454.495C434.262 454.355 434.292 454.206 434.292 454.047C434.292 453.851 434.239 453.69 434.131 453.564C434.029 453.433 433.891 453.324 433.718 453.235C433.546 453.142 433.347 453.062 433.123 452.997C432.904 452.927 432.678 452.855 432.444 452.78C432.216 452.705 431.989 452.621 431.765 452.528C431.546 452.43 431.35 452.309 431.177 452.164C431.005 452.019 430.865 451.842 430.757 451.632C430.655 451.417 430.603 451.158 430.603 450.855C430.603 450.584 430.659 450.325 430.771 450.078C430.883 449.826 431.047 449.607 431.261 449.42C431.476 449.229 431.74 449.077 432.052 448.965C432.365 448.853 432.722 448.797 433.123 448.797C433.59 448.797 434.008 448.872 434.376 449.021C434.75 449.166 435.072 449.366 435.342 449.623L435.062 450.078ZM441.735 451.681C441.735 451.392 441.693 451.128 441.609 450.89C441.53 450.647 441.411 450.44 441.252 450.267C441.098 450.09 440.909 449.954 440.685 449.861C440.461 449.763 440.207 449.714 439.922 449.714C439.325 449.714 438.851 449.889 438.501 450.239C438.156 450.584 437.941 451.065 437.857 451.681H441.735ZM442.743 455.006C442.589 455.193 442.405 455.356 442.19 455.496C441.975 455.631 441.744 455.743 441.497 455.832C441.254 455.921 441.002 455.986 440.741 456.028C440.48 456.075 440.221 456.098 439.964 456.098C439.474 456.098 439.021 456.016 438.606 455.853C438.195 455.685 437.838 455.442 437.535 455.125C437.236 454.803 437.003 454.406 436.835 453.935C436.667 453.464 436.583 452.922 436.583 452.311C436.583 451.816 436.658 451.354 436.807 450.925C436.961 450.496 437.18 450.125 437.465 449.812C437.75 449.495 438.097 449.247 438.508 449.07C438.919 448.888 439.381 448.797 439.894 448.797C440.319 448.797 440.711 448.869 441.07 449.014C441.434 449.154 441.747 449.359 442.008 449.63C442.274 449.896 442.482 450.227 442.631 450.624C442.78 451.016 442.855 451.464 442.855 451.968C442.855 452.164 442.834 452.295 442.792 452.36C442.75 452.425 442.671 452.458 442.554 452.458H437.815C437.829 452.906 437.89 453.296 437.997 453.627C438.109 453.958 438.263 454.236 438.459 454.46C438.655 454.679 438.888 454.845 439.159 454.957C439.43 455.064 439.733 455.118 440.069 455.118C440.382 455.118 440.65 455.083 440.874 455.013C441.103 454.938 441.299 454.859 441.462 454.775C441.625 454.691 441.761 454.614 441.868 454.544C441.98 454.469 442.076 454.432 442.155 454.432C442.258 454.432 442.337 454.472 442.393 454.551L442.743 455.006ZM446.508 456.112C445.948 456.112 445.516 455.956 445.213 455.643C444.914 455.33 444.765 454.88 444.765 454.292V449.952H443.911C443.836 449.952 443.773 449.931 443.722 449.889C443.67 449.842 443.645 449.772 443.645 449.679V449.182L444.807 449.035L445.094 446.844C445.108 446.774 445.138 446.718 445.185 446.676C445.236 446.629 445.301 446.606 445.381 446.606H446.011V449.049H448.062V449.952H446.011V454.208C446.011 454.507 446.083 454.728 446.228 454.873C446.372 455.018 446.559 455.09 446.788 455.09C446.918 455.09 447.03 455.074 447.124 455.041C447.222 455.004 447.306 454.964 447.376 454.922C447.446 454.88 447.504 454.843 447.551 454.81C447.602 454.773 447.646 454.754 447.684 454.754C447.749 454.754 447.807 454.794 447.859 454.873L448.223 455.468C448.008 455.669 447.749 455.827 447.446 455.944C447.142 456.056 446.83 456.112 446.508 456.112Z" fill="#AFA8BA"/>
</svg>
