<svg width="497" height="498" viewBox="0 0 497 498" fill="none" xmlns="http://www.w3.org/2000/svg">
<path d="M207.746 95.7455C188.085 104.182 168.9 117.438 152.778 129.799C124.727 151.302 99.1018 177.607 81.2893 207.058C59.7295 242.775 59.302 284.248 73.1087 315.722C80.1363 331.758 91.1299 345.841 106 355.423C125.423 367.962 148.653 364.725 173.026 365.811C217.497 367.803 235.836 412.404 270.129 430.083C315.197 453.32 378.078 428.22 417.311 385.801C437.728 363.719 450.034 336.25 446.137 310.533C442.012 283.262 420.204 264.418 399.677 249.08C382.002 235.982 366.561 220.103 353.953 202.059C341.827 184.599 334.978 164.34 324.601 145.894C307.703 115.765 283.23 84.1421 240.379 87.1301C229.614 87.8671 218.61 91.0643 207.746 95.7455Z" fill="#00A3BD"/>
<path opacity="0.7" d="M207.746 95.7455C188.085 104.182 168.9 117.438 152.778 129.799C124.727 151.302 99.1018 177.607 81.2893 207.058C59.7295 242.775 59.302 284.248 73.1087 315.722C80.1363 331.758 91.1299 345.841 106 355.423C125.423 367.962 148.653 364.725 173.026 365.811C217.497 367.803 235.836 412.404 270.129 430.083C315.197 453.32 378.078 428.22 417.311 385.801C437.728 363.719 450.034 336.25 446.137 310.533C442.012 283.262 420.204 264.418 399.677 249.08C382.002 235.982 366.561 220.103 353.953 202.059C341.827 184.599 334.978 164.34 324.601 145.894C307.703 115.765 283.23 84.1421 240.379 87.1301C229.614 87.8671 218.61 91.0643 207.746 95.7455Z" fill="white"/>
<path d="M437.032 327.276C437.032 328.849 420.86 330.134 400.91 330.134C380.96 330.134 364.798 328.849 364.798 327.276C364.798 325.702 380.97 324.407 400.91 324.407C420.85 324.407 437.032 325.692 437.032 327.276Z" fill="#263238"/>
<path d="M362.989 175.665C362.989 175.665 359.112 173.673 359.112 170.057C359.112 166.442 367.591 163.145 374.768 164.151C381.945 165.157 385.404 173.941 384.827 178.981C384.251 184.021 384.688 187.477 389.429 190.784C394.171 194.091 402.789 204.319 399.369 209.499C395.95 214.678 391.755 216.411 394.916 220.455C398.077 224.498 398.654 229.09 394.489 232.257C392.588 233.826 390.275 234.81 387.828 235.089C385.381 235.369 382.906 234.931 380.702 233.831C375.961 231.53 371.08 223.174 372.372 216.989C373.664 210.803 369.5 192.656 368.347 186.182C367.194 179.708 365.862 175.953 362.989 175.665Z" fill="#263238" stroke="#263238" stroke-linecap="round" stroke-linejoin="round"/>
<path d="M367.78 224.907C367.78 224.907 361.17 230.813 358.735 232.536C357.355 233.651 355.614 234.215 353.844 234.12C352.979 234.12 350.862 233.124 349.679 234.269C348.496 235.415 346.807 238.731 347.234 239.02C347.661 239.309 351.26 236.709 351.687 236.709C352.115 236.709 353.268 236.57 353.268 236.57C353.268 236.57 350.107 238.871 350.822 239.299C351.538 239.727 353.417 238.442 354.132 238.004C355.242 237.108 356.297 236.147 357.293 235.126C357.293 235.126 365.335 230.813 367.233 230.375C369.132 229.937 370.832 226.779 370.682 225.773C370.585 225.494 370.422 225.241 370.209 225.037C369.995 224.832 369.735 224.682 369.452 224.597C369.169 224.512 368.87 224.496 368.579 224.55C368.288 224.604 368.014 224.726 367.78 224.907Z" fill="white" stroke="#263238" stroke-linecap="round" stroke-linejoin="round"/>
<path d="M365.862 189.24C366.987 190.668 367.656 192.404 367.78 194.22C367.78 196.959 363.615 201.999 362.174 206.311C360.733 210.624 361.896 213.513 363.039 215.096C364.182 216.68 366.2 219.269 366.349 220.714C366.498 222.158 367.064 224.698 367.064 224.698C367.064 224.698 371.945 226.142 381.577 222.257C381.577 222.257 382.571 200.086 382.292 197.208C382.014 194.33 378.128 192.457 376.259 192.168C374.39 191.879 372.233 190.724 371.517 189.29C371.088 188.415 370.755 187.497 370.523 186.551L365.862 189.24Z" fill="#00A3BD" stroke="#263238" stroke-linecap="round" stroke-linejoin="round"/>
<path d="M375.106 191.959C373.613 191.57 372.316 190.641 371.468 189.35C371.039 188.475 370.705 187.557 370.474 186.611L365.871 189.2C367.001 190.641 367.666 192.392 367.78 194.22C367.78 195.465 366.915 197.208 365.842 199.11C366.677 200.923 368.237 202.865 370.752 201.033C373.267 199.2 374.499 194.977 375.106 191.959Z" fill="white" stroke="#263238" stroke-linecap="round" stroke-linejoin="round"/>
<path d="M365.633 169.848C365.633 169.848 362.651 172.278 362.094 174.38C361.538 176.481 359.709 181.352 360.106 183.135C360.504 184.917 360.802 190.306 362.899 190.824C364.997 191.342 371.617 187.158 372.661 185.236C373.704 183.314 374.579 178.413 372.313 173.692C370.046 168.971 366.508 168.105 365.633 169.848Z" fill="white" stroke="#263238" stroke-linecap="round" stroke-linejoin="round"/>
<path d="M364.937 168.105C364.937 168.105 369.122 172.089 369.649 177.368C370.176 182.646 368.078 188.324 372.631 192.228C377.183 196.132 384.668 191.7 384.668 191.7C381.656 189.37 379.606 186.008 378.913 182.258C378.038 176.282 376.646 170.894 373.853 169.151C371.06 167.408 365.981 167.398 364.937 168.105Z" fill="#263238" stroke="#263238" stroke-linecap="round" stroke-linejoin="round"/>
<path d="M422.45 265.504C422.45 265.504 427.191 262.775 427.758 263.064C428.325 263.352 433.792 270.544 433.941 271.261C434.09 271.978 433.076 272.416 432.499 272.127C431.923 271.838 427.331 268.532 426.177 268.382C425.024 268.233 423.195 267.814 423.195 267.814L422.45 265.504Z" fill="#00A3BD" stroke="#263238" stroke-linecap="round" stroke-linejoin="round"/>
<path d="M374.738 317.336C374.63 319.052 374.296 320.747 373.744 322.375C373.028 323.82 370.444 326.26 370.444 326.837C370.444 327.415 370.871 327.555 371.587 327.555C373.411 327.299 375.116 326.497 376.478 325.254C377.281 324.189 377.949 323.028 378.466 321.798C378.903 321.22 380.623 320.503 380.772 319.208C380.921 317.913 379.042 315.752 379.042 315.752L374.738 317.336Z" fill="#00A3BD" stroke="#263238" stroke-linecap="round" stroke-linejoin="round"/>
<path d="M367.015 224.757C367.015 224.757 363.565 246.361 364.033 258.024C364.5 269.687 370.643 298.332 372.084 304.378C373.525 310.423 374.808 317.326 374.808 317.326L379.122 315.742C379.122 315.742 380.414 301.489 379.271 292.565C378.128 283.641 376.537 270.245 376.965 265.932C377.392 261.619 377.402 254.976 377.402 254.976C377.402 254.976 383.286 274.986 385.732 279.169C388.177 283.352 389.469 283.77 391.338 283.631C393.207 283.491 410.303 275.274 412.749 273.84C415.194 272.406 423.235 267.795 423.235 267.795L422.52 265.484C422.52 265.484 410.592 268.8 405.85 270.384C401.109 271.968 394.35 273.98 394.35 273.98C394.35 273.98 393.057 257.715 391.477 248.502C389.897 239.289 383.724 224.309 381.537 222.297C381.527 222.317 376.786 225.096 367.015 224.757Z" fill="#263238" stroke="#263238" stroke-linecap="round" stroke-linejoin="round"/>
<path d="M377.571 255.713L374.092 242.685" stroke="white" stroke-linecap="round" stroke-linejoin="round"/>
<path d="M376.776 196.212C375.75 198.025 375.445 200.159 375.921 202.188C376.776 205.375 382.282 221.52 382.282 221.52C382.282 221.52 376.14 225.554 372.75 227.885C369.958 229.691 367.057 231.321 364.062 232.765C363.526 232.532 362.947 232.411 362.363 232.411C361.778 232.411 361.199 232.532 360.663 232.765C359.182 233.622 356.22 237.227 356.856 237.656C357.492 238.084 360.454 235.743 360.454 235.743C361.788 235.957 363.131 236.1 364.48 236.172C365.752 236.172 368.088 234.04 368.088 234.04C368.088 234.04 388.217 224.488 388.853 224.488C389.489 224.488 382.074 197.208 382.074 197.208C382.074 197.208 380.801 195.087 378.893 194.877" fill="#00A3BD"/>
<path d="M376.776 196.212C375.75 198.025 375.445 200.159 375.921 202.188C376.776 205.375 382.282 221.52 382.282 221.52C382.282 221.52 376.14 225.554 372.75 227.885C369.958 229.691 367.057 231.321 364.062 232.765C363.526 232.532 362.947 232.411 362.363 232.411C361.778 232.411 361.199 232.532 360.663 232.765C359.182 233.622 356.22 237.227 356.856 237.656C357.492 238.084 360.454 235.743 360.454 235.743C361.788 235.957 363.131 236.1 364.48 236.172C365.752 236.172 368.088 234.04 368.088 234.04C368.088 234.04 388.217 224.488 388.853 224.488C389.489 224.488 382.074 197.208 382.074 197.208C382.074 197.208 380.801 195.087 378.893 194.877" stroke="#263238" stroke-linecap="round" stroke-linejoin="round"/>
<path d="M387.441 217.636L381.477 218.961C381.984 220.475 382.322 221.461 382.322 221.461C382.322 221.461 376.179 225.494 372.79 227.825C369.998 229.631 367.097 231.261 364.102 232.705C363.566 232.472 362.987 232.351 362.402 232.351C361.818 232.351 361.239 232.472 360.703 232.705C359.222 233.562 356.26 237.168 356.896 237.596C357.532 238.024 360.494 235.683 360.494 235.683C361.827 235.897 363.171 236.04 364.52 236.112C365.792 236.112 368.128 233.98 368.128 233.98C368.128 233.98 388.256 224.429 388.893 224.429C389.062 224.429 388.406 221.53 387.441 217.636Z" fill="white" stroke="#263238" stroke-linecap="round" stroke-linejoin="round"/>
<path d="M218.183 219.02C218.183 220.604 202.021 221.889 182.071 221.889C162.121 221.889 145.959 220.604 145.959 219.02C145.959 217.437 162.121 216.132 182.071 216.132C202.021 216.132 218.183 217.447 218.183 219.02Z" fill="#263238"/>
<path d="M187.747 81.3533L175.093 107.379L178.88 109.54L189.904 95.0981L187.747 81.3533Z" fill="#00A3BD" stroke="#263238" stroke-linecap="round" stroke-linejoin="round"/>
<path d="M221.791 79.4609L228.322 110.178L239.614 121.781C239.614 121.781 246.85 123.524 247.715 124.102C248.58 124.679 250.319 127.588 250.319 127.588L249.166 128.165L243.957 125.845H242.218L245.399 128.454L244.792 129.042L236.711 123.235L223.103 113.076L218.471 103.504L221.791 79.4609Z" fill="#00A3BD" stroke="#263238" stroke-linecap="round" stroke-linejoin="round"/>
<path d="M247.715 124.102C246.85 123.524 239.614 121.781 239.614 121.781L228.322 110.178L227.875 108.096L222.318 111.442L223.103 113.076L236.711 123.235L244.792 129.042L245.399 128.454L242.218 125.845H243.957L249.166 128.165L250.319 127.588C250.319 127.588 248.589 124.689 247.715 124.102Z" fill="white" stroke="#263238" stroke-linecap="round" stroke-linejoin="round"/>
<path d="M199.416 76.692L187.697 81.3035C187.697 81.3035 190.987 101.622 191.126 105.307C191.265 108.992 190.331 118.893 191.126 119.948C191.922 121.004 193.89 121.134 193.89 121.134L217.935 121.014C217.935 121.014 219.992 120.018 219.167 116.263C218.71 114.201 219.684 97.9267 219.952 94.4905C220.221 91.0543 221.791 79.4609 221.791 79.4609C221.791 79.4609 212.05 76.692 209.416 76.2936C206.782 75.8952 201.394 75.3673 199.416 76.692Z" fill="#00A3BD" stroke="#263238" stroke-linecap="round" stroke-linejoin="round"/>
<path d="M201.782 73.3554C200.76 73.6342 199.778 74.0425 198.86 74.5705C198.383 75.0586 198.015 77.6183 197.528 78.9629C197.041 80.3075 195.46 82.6182 195.947 82.7377C196.434 82.8572 200.569 80.7457 200.569 80.7457L205.311 86.1341L209.814 80.5067C209.814 80.5067 213.332 83.1859 213.581 82.8174C213.829 82.4489 212 78.0665 211.881 76.2438C211.762 74.4211 209.078 73.8036 207.498 73.6841C205.917 73.5646 201.782 73.3554 201.782 73.3554Z" fill="white" stroke="#263238" stroke-linecap="round" stroke-linejoin="round"/>
<path d="M200.728 70.4072V77.5286L205.162 85.7158L209.396 77.429V69.9889L200.728 70.4072Z" fill="white" stroke="#263238" stroke-linecap="round" stroke-linejoin="round"/>
<path d="M198.86 62.3596C198.86 62.3596 197.07 59.1624 196.066 60.9652C195.063 62.7679 196.464 66.5527 197.06 67.5487C197.657 68.5447 198.651 66.9511 198.651 66.9511" fill="white"/>
<path d="M198.86 62.3596C198.86 62.3596 197.07 59.1624 196.066 60.9652C195.063 62.7679 196.464 66.5527 197.06 67.5487C197.657 68.5447 198.651 66.9511 198.651 66.9511" stroke="#263238" stroke-linecap="round" stroke-linejoin="round"/>
<path d="M211.722 62.3596C211.722 62.3596 213.521 59.1624 214.515 60.9652C215.509 62.7679 214.118 66.5527 213.521 67.5487C212.925 68.5447 211.921 66.9511 211.921 66.9511" fill="white"/>
<path d="M211.722 62.3596C211.722 62.3596 213.521 59.1624 214.515 60.9652C215.509 62.7679 214.118 66.5527 213.521 67.5487C212.925 68.5447 211.921 66.9511 211.921 66.9511" stroke="#263238" stroke-linecap="round" stroke-linejoin="round"/>
<path d="M212.607 61.752C212.607 67.3694 209.307 75.1283 205.231 75.1283C201.156 75.1283 197.866 67.3694 197.866 61.752C197.866 56.1346 201.166 51.5729 205.231 51.5729C209.297 51.5729 212.607 56.1346 212.607 61.752Z" fill="white" stroke="#263238" stroke-linecap="round" stroke-linejoin="round"/>
<path d="M211.036 58.9333C211.036 58.9333 210.529 60.3875 211.145 61.005C211.762 61.6225 211.662 62.5488 211.553 63.7938C211.444 65.0388 211.762 65.7858 212.179 65.3476C212.597 64.9093 213.004 59.1425 213.004 58.7341C213.004 58.3258 211.036 58.9333 211.036 58.9333Z" fill="#263238" stroke="#263238" stroke-linecap="round" stroke-linejoin="round"/>
<path d="M197.945 60.9054L198.154 64.1026C198.235 64.1321 198.321 64.1449 198.407 64.1402C198.492 64.1355 198.576 64.1134 198.654 64.0752C198.731 64.037 198.799 63.9836 198.855 63.9181C198.911 63.8526 198.953 63.7765 198.979 63.6942C199.188 63.0667 198.671 61.1046 199.188 60.0787C199.705 59.0528 201.663 58.525 201.782 57.768C201.901 57.011 200.788 55.7063 200.788 55.1884C200.788 54.6704 201.096 54.1924 203.681 56.6326C206.265 59.0728 210.996 59.6206 213.471 59.013C215.946 58.4054 212.955 54.6704 212.338 53.8438C211.722 53.0171 213.988 53.6346 212.746 51.5729C211.503 49.5112 207.179 48.1666 202.856 49.7104C198.532 51.2542 196.047 53.4354 196.663 55.6067C197.279 57.778 197.945 60.9054 197.945 60.9054Z" fill="#263238" stroke="#263238" stroke-linecap="round" stroke-linejoin="round"/>
<path d="M225.141 209.718C225.141 209.718 222.467 172.786 221.851 157.926C221.235 143.065 218.143 120.177 218.143 120.177L208.899 119.042H201.235L191.126 119.938C191.126 119.938 189.407 123.574 188.82 130.665C188.164 138.474 188.611 150.137 188.293 157.926C187.667 172.776 184.993 209.718 184.993 209.718L182.727 211.989V213.632L188.91 216.112L204.963 140.605L205.072 140.436L205.172 140.605L221.225 216.132L227.407 213.652V212.009L225.141 209.718Z" fill="#263238" stroke="#263238" stroke-linecap="round" stroke-linejoin="round"/>
<path d="M182.727 213.632L176.147 219.21V220.445H188.293L188.91 216.112L182.727 213.632Z" fill="#00A3BD" stroke="#263238" stroke-linecap="round" stroke-linejoin="round"/>
<path d="M188.293 220.445L188.462 219.21H176.147V220.445H188.293Z" fill="white" stroke="#263238" stroke-linecap="round" stroke-linejoin="round"/>
<path d="M227.199 213.632L233.789 219.21V220.445H221.642L221.026 216.112L227.199 213.632Z" fill="#00A3BD" stroke="#263238" stroke-linecap="round" stroke-linejoin="round"/>
<path d="M221.642 220.445L221.463 219.21H233.789V220.445H221.642Z" fill="white" stroke="#263238" stroke-linecap="round" stroke-linejoin="round"/>
<path d="M227.218 107.439L220.877 109.978L223.103 114.171L228.322 111.273L227.218 107.439Z" fill="white" stroke="#263238" stroke-linecap="round" stroke-linejoin="round"/>
<path d="M180.759 108.454L175.868 106.054C175.868 106.054 173.731 107.707 173.95 109.54C174.008 110.076 174.181 110.593 174.457 111.055C174.734 111.518 175.106 111.915 175.55 112.219L181.385 111.97L180.759 108.454Z" fill="white" stroke="#263238" stroke-linecap="round" stroke-linejoin="round"/>
<path d="M192.548 124.5H190.003L181.057 111.213C181.057 111.213 177.727 109.67 175.521 112.209L188.015 126.94L189.755 129.39L192.17 126.492L195.152 127.488L195.947 126.641L192.548 124.5Z" fill="white" stroke="#263238" stroke-linecap="round" stroke-linejoin="round"/>
<path d="M166.664 439.485C166.664 441.069 150.492 442.353 130.542 442.353C110.592 442.353 94.43 441.069 94.43 439.485C94.43 437.901 110.602 436.626 130.542 436.626C150.482 436.626 166.664 437.911 166.664 439.485Z" fill="#263238"/>
<path d="M109.638 431.786L116.586 437.662V438.967H103.774L104.668 432.662L109.638 431.786Z" fill="#00A3BD" stroke="#263238" stroke-linecap="round" stroke-linejoin="round"/>
<path d="M125.652 278.352C125.652 278.352 126.496 276.659 127.202 278.213C127.815 279.808 127.864 281.565 127.341 283.193C126.914 283.9 125.224 284.886 125.224 284.189C125.224 283.491 125.652 278.352 125.652 278.352Z" fill="white" stroke="#263238" stroke-linecap="round" stroke-linejoin="round"/>
<path d="M112.004 281.649C112.004 281.649 110.722 280.254 110.483 281.938C110.337 283.63 110.776 285.321 111.726 286.728C112.322 287.286 114.221 287.724 114.032 287.087C113.843 286.45 112.004 281.649 112.004 281.649Z" fill="white" stroke="#263238" stroke-linecap="round" stroke-linejoin="round"/>
<path d="M116.875 295.673C118.863 295.673 123.425 295.344 123.425 295.344L134.667 290.463L144.398 277.177L149.269 250.604C148.469 249.16 147.778 247.658 147.201 246.112C147.227 244.763 147.428 243.424 147.798 242.128C147.798 242.128 148.404 240.723 148.603 241.928C148.71 242.922 148.71 243.923 148.603 244.916L149.209 245.912C149.615 243.937 150.15 241.991 150.81 240.086C151.416 238.881 152.798 239.279 152.798 240.086C152.798 240.893 153.404 242.905 153.603 244.508C153.802 246.112 151.615 251.281 151.615 251.281L150.949 279.707C150.949 279.707 136.844 302.415 136.039 303.252C135.234 304.089 135.363 321.419 135.204 324.108C135.045 326.798 136.198 331.847 135.87 332.853C135.542 333.859 134.021 336.558 128.991 337.734C123.962 338.909 114.718 338.072 113.714 336.897C112.71 335.722 112.72 332.355 112.72 332.355C112.72 332.355 107.64 317.276 107.64 315.921C107.64 315.134 106.308 309.517 105.205 305.015C104.819 303.427 105.054 301.751 105.862 300.33C106.669 298.91 107.988 297.853 109.549 297.376C111.945 296.627 114.394 296.058 116.875 295.673Z" fill="white" stroke="#263238" stroke-linecap="round" stroke-linejoin="round"/>
<path d="M123.425 295.344L134.667 290.463L144.398 277.177L148.533 254.647L151.515 254.737L150.929 279.697C150.929 279.697 136.824 302.406 136.019 303.242C135.214 304.079 135.343 321.409 135.184 324.098C135.025 326.788 136.178 331.837 135.85 332.843C135.522 333.849 134.001 336.548 128.972 337.724C123.942 338.899 114.698 338.062 113.694 336.887C112.69 335.712 112.7 332.345 112.7 332.345C112.7 332.345 107.62 317.266 107.62 315.911C107.62 315.134 106.318 309.636 105.225 305.164C104.827 303.534 105.066 301.812 105.894 300.353C106.722 298.894 108.076 297.807 109.678 297.316C112.04 296.59 114.452 296.041 116.894 295.673C118.892 295.673 123.425 295.344 123.425 295.344Z" fill="#00A3BD" stroke="#263238" stroke-linecap="round" stroke-linejoin="round"/>
<path d="M122.749 291.3C123.968 291.959 125.146 292.691 126.278 293.491C126.775 293.999 129.26 302.575 129.26 302.575L123.882 299.587L118.008 304.298C118.008 304.298 115.831 297.904 116.02 295.553C116.13 294.782 116.395 294.042 116.798 293.376C117.201 292.71 117.734 292.133 118.366 291.679L122.749 291.3Z" fill="white" stroke="#263238" stroke-linecap="round" stroke-linejoin="round"/>
<path d="M123.425 290.633L123.584 303.919L117.55 291.808L123.425 290.633Z" fill="white" stroke="#263238" stroke-linecap="round" stroke-linejoin="round"/>
<path d="M112.113 282.565C113.018 287.774 117.332 294.408 121.059 293.75C124.787 293.093 126.626 285.374 125.721 280.165C124.817 274.956 121.01 271.281 117.242 271.948C113.475 272.615 111.199 277.356 112.113 282.565Z" fill="white" stroke="#263238" stroke-linecap="round" stroke-linejoin="round"/>
<path d="M126.009 281.539C126.009 281.539 124.518 282.007 124.727 281.45C124.746 280.657 124.608 279.868 124.32 279.129C123.906 278.913 123.562 278.585 123.326 278.183C122.888 277.466 123.465 276.251 123.326 275.324C123.186 274.398 118.713 277.087 117.938 277.227C117.163 277.366 112.66 277.037 112.66 277.037C112.66 277.037 113.922 279.677 113.515 280.075C113.107 280.474 113.038 281.908 113.038 281.908C113.41 282.837 113.686 283.801 113.863 284.786C113.783 285.274 112.869 285.782 112.68 285.314C112.491 284.846 111.745 280.862 111.745 280.862C111.745 280.862 110.692 281.201 110.314 279.039C109.936 276.878 110.314 271.868 112.302 270.563C114.29 269.259 119.26 268.392 121.427 269.119C123.594 269.846 125.87 274.557 125.711 276.33C125.671 278.072 125.771 279.814 126.009 281.539Z" fill="#263238" stroke="#263238" stroke-linecap="round" stroke-linejoin="round"/>
<path d="M116.586 437.662V438.967H103.774L104.042 437.085H115.91L116.586 437.662Z" fill="white" stroke="#263238" stroke-linecap="round" stroke-linejoin="round"/>
<path d="M140.78 431.258L148.891 437.662V438.967H135.273L136.168 431.457L140.78 431.258Z" fill="#00A3BD" stroke="#263238" stroke-linecap="round" stroke-linejoin="round"/>
<path d="M148.891 437.662V438.967H135.273L135.542 437.085H148.205L148.891 437.662Z" fill="white" stroke="#263238" stroke-linecap="round" stroke-linejoin="round"/>
<path d="M135.84 332.843C135.84 332.843 140.174 354.666 141.387 363.311C142.599 371.956 143.593 395.671 143.593 404.316C143.593 412.962 140.78 431.268 140.78 431.268L136.168 431.467C136.168 431.467 132.192 383.659 130.95 380.004C129.707 376.349 126.974 365.93 126.974 365.93C126.974 365.93 123.763 391.826 123.365 394.884C122.968 397.942 109.479 432.264 109.479 432.264L104.668 432.662C104.668 432.662 112.491 394.466 112.69 391.826C112.889 389.187 111.089 352.823 112.093 346.389C113.097 339.955 113.694 335.742 113.694 335.742C113.694 335.742 127.898 337.764 135.84 332.843Z" fill="#263238" stroke="#263238" stroke-linecap="round" stroke-linejoin="round"/>
<path d="M126.934 365.92L128.345 353.052" stroke="white" stroke-linecap="round" stroke-linejoin="round"/>
<path d="M107.779 300.085C107.779 300.085 104.131 303.312 106.557 307.565C108.197 310.423 123.455 332.286 125.94 332.973C128.425 333.66 156.893 333.132 156.893 333.132L163.175 332.784L167.956 330.035L161.644 329.845C161.644 329.845 165.62 327.704 163.722 327.804C161.823 327.903 155.7 331.28 155.7 331.28L129.131 326.479L118.733 307.067" fill="#00A3BD"/>
<path d="M107.779 300.085C107.779 300.085 104.131 303.312 106.557 307.565C108.197 310.423 123.455 332.286 125.94 332.973C128.425 333.66 156.893 333.132 156.893 333.132L163.175 332.784L167.956 330.035L161.644 329.845C161.644 329.845 165.62 327.704 163.722 327.804C161.823 327.903 155.7 331.28 155.7 331.28L129.131 326.479L118.733 307.067" stroke="#263238" stroke-linecap="round" stroke-linejoin="round"/>
<path d="M163.722 327.803C161.803 327.913 155.7 331.28 155.7 331.28L155.144 331.18L155.253 333.172H156.893L163.175 332.823L167.956 330.074L161.644 329.885C161.644 329.885 165.63 327.684 163.722 327.803Z" fill="white" stroke="#263238" stroke-linecap="round" stroke-linejoin="round"/>
<path d="M349.5 236.291H270.457C266.483 236.291 263.261 239.52 263.261 243.502V322.704C263.261 326.687 266.483 329.915 270.457 329.915H349.5C353.475 329.915 356.697 326.687 356.697 322.704V243.502C356.697 239.52 353.475 236.291 349.5 236.291Z" fill="#263238"/>
<path d="M353.983 281.868L338.527 260.056L314.581 296.649L290.248 287.207L269.791 321.459C269.41 322.098 269.205 322.828 269.196 323.572C269.188 324.317 269.377 325.051 269.743 325.699C270.11 326.347 270.642 326.886 271.284 327.261C271.926 327.636 272.656 327.833 273.4 327.833H346.797C348.705 327.833 350.536 327.074 351.885 325.721C353.235 324.369 353.993 322.535 353.993 320.622L353.983 281.868Z" fill="white"/>
<path d="M287.773 267.575C293.296 267.575 297.773 263.089 297.773 257.556C297.773 252.022 293.296 247.536 287.773 247.536C282.25 247.536 277.773 252.022 277.773 257.556C277.773 263.089 282.25 267.575 287.773 267.575Z" fill="white"/>
<path d="M305.536 319.019C305.571 318.532 305.789 318.076 306.145 317.743C306.502 317.41 306.972 317.225 307.459 317.225C307.947 317.225 308.416 317.41 308.773 317.743C309.13 318.076 309.347 318.532 309.382 319.019C309.401 319.284 309.366 319.549 309.278 319.8C309.19 320.05 309.051 320.28 308.871 320.474C308.69 320.668 308.472 320.823 308.229 320.929C307.986 321.035 307.724 321.09 307.459 321.09C307.194 321.09 306.932 321.035 306.689 320.929C306.446 320.823 306.228 320.668 306.047 320.474C305.867 320.28 305.728 320.05 305.64 319.8C305.552 319.549 305.517 319.284 305.536 319.019Z" fill="#263238"/>
<path d="M323.11 315.463C323.153 316.182 323.046 316.903 322.796 317.579C322.547 318.254 322.159 318.871 321.659 319.389C321.159 319.907 320.557 320.315 319.891 320.587C319.226 320.859 318.511 320.99 317.792 320.971C317.195 321 316.599 320.899 316.045 320.675C315.491 320.452 314.992 320.111 314.581 319.676V324.656H311.49V310.115H314.472V311.34C314.89 310.872 315.409 310.504 315.989 310.264C316.569 310.025 317.195 309.919 317.822 309.955C318.538 309.939 319.251 310.071 319.914 310.345C320.577 310.619 321.176 311.028 321.673 311.545C322.17 312.063 322.554 312.679 322.802 313.353C323.049 314.027 323.154 314.746 323.11 315.463ZM319.979 315.463C319.928 314.937 319.727 314.437 319.399 314.023C319.07 313.609 318.629 313.3 318.128 313.133C317.628 312.966 317.09 312.948 316.579 313.082C316.069 313.215 315.608 313.494 315.253 313.885C314.898 314.276 314.664 314.762 314.579 315.284C314.494 315.806 314.563 316.341 314.776 316.824C314.989 317.308 315.338 317.719 315.779 318.008C316.221 318.297 316.737 318.451 317.265 318.451C317.646 318.456 318.024 318.38 318.373 318.228C318.723 318.076 319.036 317.851 319.293 317.569C319.549 317.286 319.743 316.953 319.861 316.59C319.979 316.227 320.019 315.843 319.979 315.463Z" fill="#263238"/>
<path d="M336.091 314.736V320.861H332.99V315.214C332.99 313.481 332.195 312.684 330.833 312.684C329.471 312.684 328.268 313.601 328.268 315.573V320.861H325.177V310.115H328.159V311.36C328.619 310.892 329.171 310.525 329.781 310.283C330.39 310.042 331.043 309.93 331.698 309.955C334.183 309.955 336.091 311.419 336.091 314.736Z" fill="#263238"/>
<path d="M350.017 310.115V319.019C350.017 323.003 347.87 324.825 344.053 324.825C342.195 324.903 340.361 324.386 338.815 323.351L340.047 321.13C341.145 321.92 342.463 322.342 343.815 322.335C345.992 322.335 346.946 321.339 346.946 319.417V318.959C346.511 319.409 345.986 319.761 345.405 319.992C344.824 320.222 344.2 320.325 343.576 320.294C342.208 320.294 340.896 319.749 339.928 318.78C338.961 317.81 338.417 316.495 338.417 315.124C338.417 313.753 338.961 312.439 339.928 311.469C340.896 310.5 342.208 309.955 343.576 309.955C344.242 309.917 344.908 310.035 345.52 310.3C346.133 310.564 346.675 310.968 347.105 311.479V310.115H350.017ZM346.956 315.095C346.996 314.529 346.865 313.965 346.58 313.476C346.295 312.987 345.87 312.594 345.36 312.351C344.849 312.107 344.277 312.023 343.719 312.11C343.16 312.197 342.64 312.45 342.227 312.837C341.815 313.225 341.528 313.727 341.405 314.28C341.281 314.833 341.327 315.41 341.536 315.937C341.745 316.463 342.107 316.914 342.576 317.231C343.044 317.548 343.597 317.717 344.163 317.714C344.519 317.741 344.877 317.695 345.214 317.577C345.552 317.46 345.861 317.273 346.123 317.03C346.386 316.787 346.595 316.492 346.738 316.164C346.881 315.836 346.955 315.482 346.956 315.124V315.095Z" fill="#263238"/>
<path d="M234.455 236.291H155.412C151.437 236.291 148.215 239.52 148.215 243.502V322.704C148.215 326.687 151.437 329.915 155.412 329.915H234.455C238.429 329.915 241.651 326.687 241.651 322.704V243.502C241.651 239.52 238.429 236.291 234.455 236.291Z" fill="#263238"/>
<path d="M238.938 281.868L223.481 260.056L199.536 296.649L175.193 287.207L154.736 321.459C154.355 322.098 154.15 322.826 154.141 323.57C154.132 324.314 154.32 325.047 154.685 325.695C155.051 326.342 155.581 326.881 156.222 327.257C156.863 327.633 157.592 327.831 158.334 327.833H231.741C233.65 327.833 235.48 327.074 236.83 325.721C238.18 324.369 238.938 322.535 238.938 320.622V281.868Z" fill="white"/>
<path d="M172.727 267.575C178.25 267.575 182.727 263.089 182.727 257.556C182.727 252.022 178.25 247.536 172.727 247.536C167.205 247.536 162.728 252.022 162.728 257.556C162.728 263.089 167.205 267.575 172.727 267.575Z" fill="white"/>
<path d="M195.073 319.108C195.073 318.546 195.296 318.006 195.693 317.608C196.09 317.21 196.628 316.987 197.19 316.987C197.751 316.987 198.29 317.21 198.687 317.608C199.084 318.006 199.307 318.546 199.307 319.108C199.307 319.387 199.252 319.663 199.146 319.92C199.039 320.178 198.883 320.412 198.687 320.609C198.49 320.806 198.257 320.962 198 321.068C197.743 321.175 197.468 321.23 197.19 321.23C196.912 321.23 196.636 321.175 196.379 321.068C196.123 320.962 195.889 320.806 195.693 320.609C195.496 320.412 195.34 320.178 195.234 319.92C195.127 319.663 195.073 319.387 195.073 319.108Z" fill="#263238"/>
<path d="M198.243 324.836L199.158 322.365C199.585 322.648 200.087 322.794 200.599 322.784C201.444 322.784 201.991 322.236 201.991 321.081V309.318H205.39V321.051C205.447 321.647 205.371 322.249 205.169 322.813C204.967 323.377 204.643 323.89 204.221 324.314C203.799 324.738 203.288 325.064 202.725 325.268C202.163 325.471 201.562 325.548 200.967 325.493C200.015 325.54 199.07 325.312 198.243 324.836ZM201.573 305.772C201.585 305.507 201.649 305.247 201.762 305.006C201.875 304.766 202.035 304.551 202.232 304.374C202.429 304.197 202.66 304.061 202.91 303.974C203.161 303.888 203.426 303.852 203.69 303.87C203.951 303.841 204.216 303.866 204.466 303.944C204.717 304.022 204.949 304.151 205.148 304.323C205.347 304.495 205.508 304.706 205.621 304.944C205.735 305.181 205.798 305.439 205.808 305.702C205.766 306.231 205.529 306.725 205.144 307.088C204.758 307.451 204.251 307.657 203.722 307.665C203.193 307.674 202.68 307.485 202.282 307.135C201.885 306.785 201.632 306.299 201.573 305.772Z" fill="#263238"/>
<path d="M221.314 315.194C221.363 315.985 221.246 316.778 220.973 317.521C220.699 318.265 220.273 318.943 219.723 319.512C219.174 320.082 218.511 320.531 217.779 320.83C217.047 321.129 216.26 321.272 215.469 321.25C214.813 321.283 214.158 321.173 213.549 320.927C212.939 320.681 212.391 320.305 211.941 319.826V325.314H208.541V309.318H211.782V310.672C212.241 310.156 212.812 309.75 213.451 309.486C214.09 309.222 214.78 309.107 215.469 309.148C216.259 309.126 217.045 309.269 217.776 309.568C218.508 309.866 219.17 310.314 219.72 310.882C220.269 311.451 220.695 312.128 220.969 312.87C221.244 313.613 221.361 314.404 221.314 315.194ZM217.875 315.194C217.823 314.618 217.605 314.068 217.247 313.614C216.889 313.159 216.408 312.818 215.86 312.633C215.313 312.447 214.724 312.425 214.164 312.569C213.604 312.713 213.098 313.016 212.708 313.443C212.317 313.87 212.058 314.401 211.963 314.972C211.869 315.543 211.941 316.13 212.173 316.66C212.404 317.191 212.785 317.642 213.267 317.96C213.75 318.278 214.315 318.449 214.893 318.451C215.308 318.453 215.719 318.368 216.1 318.201C216.48 318.034 216.822 317.79 217.102 317.483C217.383 317.176 217.597 316.815 217.73 316.42C217.863 316.026 217.912 315.609 217.875 315.194Z" fill="#263238"/>
<path d="M235.697 309.318V319.108C235.697 323.481 233.342 325.493 229.107 325.493C227.065 325.578 225.049 325.009 223.352 323.869L224.704 321.429C225.909 322.303 227.361 322.77 228.849 322.764C231.244 322.764 232.288 321.668 232.288 319.547V319.039C231.815 319.53 231.244 319.916 230.612 320.17C229.979 320.424 229.301 320.541 228.62 320.513C227.855 320.545 227.092 320.422 226.376 320.151C225.66 319.879 225.006 319.466 224.454 318.935C223.902 318.405 223.462 317.767 223.162 317.062C222.862 316.356 222.707 315.597 222.707 314.831C222.707 314.064 222.862 313.305 223.162 312.599C223.462 311.894 223.902 311.257 224.454 310.726C225.006 310.195 225.66 309.782 226.376 309.511C227.092 309.24 227.855 309.116 228.62 309.148C229.353 309.105 230.086 309.233 230.761 309.523C231.436 309.814 232.034 310.259 232.507 310.822V309.318H235.697ZM232.338 314.826C232.379 314.205 232.234 313.587 231.92 313.05C231.607 312.514 231.139 312.085 230.579 311.818C230.018 311.552 229.391 311.46 228.778 311.556C228.165 311.651 227.594 311.93 227.141 312.354C226.688 312.779 226.373 313.331 226.237 313.937C226.101 314.544 226.15 315.177 226.378 315.755C226.607 316.334 227.003 316.829 227.516 317.179C228.029 317.528 228.636 317.715 229.256 317.714C229.652 317.744 230.049 317.692 230.424 317.56C230.798 317.429 231.141 317.22 231.431 316.949C231.72 316.677 231.951 316.348 232.107 315.983C232.263 315.617 232.341 315.223 232.338 314.826Z" fill="#263238"/>
<path d="M205.569 213.841V134.639C205.569 132.727 206.327 130.893 207.677 129.54C209.027 128.188 210.857 127.428 212.766 127.428H291.809C293.717 127.428 295.548 128.188 296.897 129.54C298.247 130.893 299.005 132.727 299.005 134.639V213.841C299.005 215.754 298.247 217.588 296.897 218.94C295.548 220.293 293.717 221.052 291.809 221.052H212.766C210.857 221.052 209.027 220.293 207.677 218.94C206.327 217.588 205.569 215.754 205.569 213.841Z" fill="#263238"/>
<path d="M223.173 182.168C223.217 181.386 223.559 180.651 224.127 180.113C224.695 179.575 225.448 179.275 226.229 179.275C227.011 179.275 227.763 179.575 228.332 180.113C228.9 180.651 229.241 181.386 229.286 182.168C229.31 182.585 229.248 183.003 229.105 183.395C228.962 183.787 228.741 184.146 228.455 184.45C228.169 184.753 227.824 184.995 227.441 185.16C227.059 185.326 226.646 185.411 226.229 185.411C225.813 185.411 225.4 185.326 225.018 185.16C224.635 184.995 224.29 184.753 224.004 184.45C223.718 184.146 223.496 183.787 223.353 183.395C223.211 183.003 223.149 182.585 223.173 182.168Z" fill="white"/>
<path d="M231.135 176.521C231.135 171.412 235.111 167.786 240.578 167.786C244.136 167.786 246.939 169.33 248.162 172.099L244.355 174.151C244 173.446 243.455 172.854 242.783 172.442C242.11 172.03 241.336 171.815 240.548 171.82C239.356 171.898 238.239 172.427 237.423 173.3C236.606 174.173 236.152 175.325 236.152 176.521C236.152 177.718 236.606 178.869 237.423 179.742C238.239 180.615 239.356 181.144 240.548 181.222C241.339 181.235 242.117 181.021 242.791 180.607C243.465 180.192 244.008 179.594 244.355 178.882L248.162 180.963C246.939 183.682 244.186 185.256 240.578 185.256C235.071 185.256 231.135 181.631 231.135 176.521Z" fill="white"/>
<path d="M249.365 183.423L250.995 179.898C252.775 180.959 254.807 181.523 256.879 181.531C259.146 181.531 260.001 180.933 260.001 179.987C260.001 177.208 249.772 180.047 249.772 173.274C249.772 170.057 252.665 167.786 257.605 167.786C259.866 167.739 262.104 168.245 264.126 169.26L262.486 172.766C260.998 171.923 259.314 171.486 257.605 171.501C255.408 171.501 254.464 172.198 254.464 173.085C254.464 175.983 264.692 173.175 264.692 179.858C264.692 183.015 261.71 185.256 256.691 185.256C254.13 185.307 251.601 184.674 249.365 183.423Z" fill="white"/>
<path d="M266.074 183.423L267.704 179.898C269.488 180.959 271.523 181.523 273.598 181.531C275.865 181.531 276.71 180.933 276.71 179.987C276.71 177.208 266.481 180.047 266.481 173.274C266.481 170.057 269.374 167.786 274.314 167.786C276.575 167.739 278.813 168.245 280.835 169.26L279.195 172.766C277.707 171.922 276.024 171.486 274.314 171.501C272.117 171.501 271.173 172.198 271.173 173.085C271.173 175.983 281.401 173.175 281.401 179.858C281.401 183.015 278.419 185.256 273.449 185.256C270.872 185.315 268.325 184.682 266.074 183.423Z" fill="white"/>
<path d="M205.569 431.756V352.584C205.569 350.672 206.327 348.837 207.677 347.485C209.027 346.133 210.857 345.373 212.766 345.373H291.809C293.717 345.373 295.548 346.133 296.897 347.485C298.247 348.837 299.005 350.672 299.005 352.584V431.786C299.005 432.733 298.819 433.671 298.457 434.545C298.096 435.42 297.566 436.215 296.897 436.885C296.229 437.555 295.436 438.086 294.563 438.448C293.689 438.81 292.754 438.997 291.809 438.997H212.766C211.818 438.997 210.88 438.809 210.005 438.445C209.13 438.081 208.335 437.547 207.666 436.874C206.998 436.202 206.468 435.403 206.108 434.525C205.748 433.646 205.565 432.706 205.569 431.756Z" fill="#263238"/>
<path d="M235.399 397.932C235.399 397.076 235.738 396.255 236.342 395.65C236.946 395.045 237.765 394.705 238.62 394.705C239.474 394.705 240.293 395.045 240.897 395.65C241.501 396.255 241.84 397.076 241.84 397.932C241.84 398.788 241.501 399.609 240.897 400.214C240.293 400.819 239.474 401.159 238.62 401.159C237.765 401.159 236.946 400.819 236.342 400.214C235.738 399.609 235.399 398.788 235.399 397.932Z" fill="white"/>
<path d="M240.21 406.647L241.602 402.892C242.253 403.32 243.019 403.539 243.798 403.519C245.091 403.519 245.916 402.693 245.916 400.93V383.002H251.094V400.89C251.094 405.023 248.679 407.643 244.355 407.643C242.906 407.718 241.467 407.372 240.21 406.647ZM245.289 377.643C245.3 377.238 245.393 376.838 245.563 376.47C245.733 376.101 245.976 375.772 246.278 375.5C246.579 375.229 246.932 375.022 247.316 374.892C247.7 374.763 248.106 374.712 248.51 374.745C250.438 374.745 251.73 375.94 251.73 377.544C251.68 378.358 251.326 379.123 250.737 379.686C250.149 380.249 249.37 380.569 248.556 380.581C247.742 380.594 246.954 380.298 246.348 379.754C245.743 379.209 245.364 378.455 245.289 377.643Z" fill="white"/>
<path d="M254.156 399.267L255.875 395.542C257.756 396.66 259.901 397.255 262.088 397.265C264.474 397.265 265.378 396.637 265.378 395.641C265.378 392.713 254.583 395.701 254.583 388.55C254.583 385.163 257.635 382.763 262.853 382.763C265.236 382.718 267.593 383.255 269.722 384.327L267.992 388.022C266.426 387.134 264.653 386.673 262.853 386.687C260.527 386.687 259.533 387.424 259.533 388.35C259.533 391.408 270.318 388.45 270.318 395.502C270.318 398.828 267.237 401.199 261.889 401.199C259.187 401.248 256.519 400.582 254.156 399.267Z" fill="white"/>
</svg>
