<svg width="142" height="142" viewBox="0 0 142 142" fill="none" xmlns="http://www.w3.org/2000/svg">
<path d="M127.579 59.2216L127.614 59.2217L127.649 59.2168C129.513 58.956 131.568 60.8672 131.282 63.5091L131.279 63.5366L131.28 63.5643L131.324 78.372C131.331 80.6699 129.631 82.3705 127.333 82.3635L68.7461 82.1865L68.4173 82.1855L68.2861 82.487C63.8902 92.5914 53.7914 99.524 41.7587 99.4876C29.3323 99.4501 18.4205 91.8001 14.3949 80.7609L41.7011 80.5295L42.1983 80.5253L42.1968 80.028L42.1385 60.7137L42.137 60.2167L41.64 60.2152L14.6807 60.1338C18.9432 49.4064 29.5025 41.5426 41.8995 41.58C53.933 41.6164 64.0772 48.6112 68.5359 58.7459L68.6669 59.0436L68.9921 59.0446L127.579 59.2216Z" fill="#342C49" stroke="#FCF7FF"/>
<path d="M49.1067 66.9617L94.6067 66.9617V75.5242L49.1067 75.5242V66.9617ZM49.1067 52.8367H55.8879L55.8879 89.4929H49.1067L49.1067 52.8367Z" fill="#342C49"/>
<path d="M49.1067 66.9617V65.9617H48.1067V66.9617H49.1067ZM94.6067 66.9617H95.6067V65.9617H94.6067V66.9617ZM94.6067 75.5242V76.5242H95.6067V75.5242H94.6067ZM49.1067 75.5242H48.1067V76.5242H49.1067V75.5242ZM49.1067 52.8367V51.8367H48.1067V52.8367H49.1067ZM55.8879 52.8367H56.8879V51.8367H55.8879V52.8367ZM55.8879 89.4929V90.4929H56.8879V89.4929H55.8879ZM49.1067 89.4929H48.1067V90.4929H49.1067V89.4929ZM49.1067 67.9617L94.6067 67.9617V65.9617L49.1067 65.9617V67.9617ZM93.6067 66.9617V75.5242H95.6067V66.9617H93.6067ZM94.6067 74.5242L49.1067 74.5242V76.5242L94.6067 76.5242V74.5242ZM50.1067 75.5242V66.9617H48.1067V75.5242H50.1067ZM49.1067 53.8367H55.8879V51.8367H49.1067V53.8367ZM54.8879 52.8367L54.8879 89.4929H56.8879L56.8879 52.8367H54.8879ZM55.8879 88.4929H49.1067V90.4929H55.8879V88.4929ZM50.1067 89.4929L50.1067 52.8367H48.1067L48.1067 89.4929H50.1067Z" fill="#FCF7FF"/>
<path d="M104.73 66.8906V74H103.393V66.8906H104.73ZM106.938 66.8906V67.9502H101.21V66.8906H106.938ZM113.451 70.2646V70.6309C113.451 71.168 113.38 71.6514 113.236 72.0811C113.093 72.5075 112.89 72.8704 112.626 73.1699C112.362 73.4694 112.048 73.6989 111.684 73.8584C111.319 74.0179 110.914 74.0977 110.468 74.0977C110.028 74.0977 109.625 74.0179 109.257 73.8584C108.892 73.6989 108.576 73.4694 108.31 73.1699C108.043 72.8704 107.836 72.5075 107.689 72.0811C107.543 71.6514 107.47 71.168 107.47 70.6309V70.2646C107.47 69.7243 107.543 69.2409 107.689 68.8145C107.836 68.388 108.041 68.0251 108.305 67.7256C108.568 67.4229 108.882 67.1917 109.247 67.0322C109.615 66.8727 110.019 66.793 110.458 66.793C110.904 66.793 111.309 66.8727 111.674 67.0322C112.038 67.1917 112.353 67.4229 112.616 67.7256C112.883 68.0251 113.088 68.388 113.231 68.8145C113.378 69.2409 113.451 69.7243 113.451 70.2646ZM112.094 70.6309V70.2549C112.094 69.8675 112.058 69.5273 111.986 69.2344C111.915 68.9382 111.809 68.6891 111.669 68.4873C111.529 68.2855 111.356 68.1341 111.151 68.0332C110.946 67.929 110.715 67.877 110.458 67.877C110.198 67.877 109.966 67.929 109.765 68.0332C109.566 68.1341 109.397 68.2855 109.257 68.4873C109.117 68.6891 109.009 68.9382 108.935 69.2344C108.863 69.5273 108.827 69.8675 108.827 70.2549V70.6309C108.827 71.015 108.863 71.3551 108.935 71.6514C109.009 71.9476 109.117 72.1982 109.257 72.4033C109.4 72.6051 109.573 72.7581 109.774 72.8623C109.976 72.9665 110.207 73.0186 110.468 73.0186C110.728 73.0186 110.959 72.9665 111.161 72.8623C111.363 72.7581 111.532 72.6051 111.669 72.4033C111.809 72.1982 111.915 71.9476 111.986 71.6514C112.058 71.3551 112.094 71.015 112.094 70.6309ZM120.346 70.2646V70.6309C120.346 71.168 120.274 71.6514 120.131 72.0811C119.988 72.5075 119.784 72.8704 119.521 73.1699C119.257 73.4694 118.943 73.6989 118.578 73.8584C118.214 74.0179 117.808 74.0977 117.362 74.0977C116.923 74.0977 116.519 74.0179 116.151 73.8584C115.787 73.6989 115.471 73.4694 115.204 73.1699C114.937 72.8704 114.73 72.5075 114.584 72.0811C114.438 71.6514 114.364 71.168 114.364 70.6309V70.2646C114.364 69.7243 114.438 69.2409 114.584 68.8145C114.73 68.388 114.936 68.0251 115.199 67.7256C115.463 67.4229 115.777 67.1917 116.142 67.0322C116.509 66.8727 116.913 66.793 117.353 66.793C117.799 66.793 118.204 66.8727 118.568 67.0322C118.933 67.1917 119.247 67.4229 119.511 67.7256C119.778 68.0251 119.983 68.388 120.126 68.8145C120.272 69.2409 120.346 69.7243 120.346 70.2646ZM118.988 70.6309V70.2549C118.988 69.8675 118.952 69.5273 118.881 69.2344C118.809 68.9382 118.703 68.6891 118.563 68.4873C118.424 68.2855 118.251 68.1341 118.046 68.0332C117.841 67.929 117.61 67.877 117.353 67.877C117.092 67.877 116.861 67.929 116.659 68.0332C116.461 68.1341 116.291 68.2855 116.151 68.4873C116.011 68.6891 115.904 68.9382 115.829 69.2344C115.757 69.5273 115.722 69.8675 115.722 70.2549V70.6309C115.722 71.015 115.757 71.3551 115.829 71.6514C115.904 71.9476 116.011 72.1982 116.151 72.4033C116.295 72.6051 116.467 72.7581 116.669 72.8623C116.871 72.9665 117.102 73.0186 117.362 73.0186C117.623 73.0186 117.854 72.9665 118.056 72.8623C118.257 72.7581 118.427 72.6051 118.563 72.4033C118.703 72.1982 118.809 71.9476 118.881 71.6514C118.952 71.3551 118.988 71.015 118.988 70.6309ZM125.995 72.9453V74H122.421V72.9453H125.995ZM122.826 66.8906V74H121.483V66.8906H122.826Z" fill="#FCF7FF"/>
</svg>
