<svg width="142" height="142" viewBox="0 0 142 142" fill="none" xmlns="http://www.w3.org/2000/svg">
<path d="M127.579 59.2216L127.614 59.2217L127.649 59.2168C129.513 58.956 131.568 60.8672 131.282 63.5091L131.279 63.5366L131.28 63.5643L131.324 78.372C131.331 80.6699 129.631 82.3705 127.333 82.3635L68.7461 82.1865L68.4173 82.1855L68.2861 82.487C63.8902 92.5914 53.7914 99.524 41.7587 99.4876C29.3323 99.4501 18.4205 91.8001 14.3949 80.7609L41.7011 80.5295L42.1983 80.5253L42.1968 80.028L42.1385 60.7137L42.137 60.2167L41.64 60.2152L14.6807 60.1338C18.9432 49.4064 29.5025 41.5426 41.8995 41.58C53.933 41.6164 64.0772 48.6112 68.5359 58.7459L68.6669 59.0436L68.9921 59.0446L127.579 59.2216Z" fill="url(#paint0_linear_130_13)" stroke="#E4F0FF"/>
<path d="M49.1067 66.9617L94.6067 66.9617V75.5242L49.1067 75.5242V66.9617ZM49.1067 52.8367H55.8879L55.8879 89.4929H49.1067L49.1067 52.8367Z" fill="url(#paint1_linear_130_13)"/>
<path d="M49.1067 66.9617V65.9617H48.1067V66.9617H49.1067ZM94.6067 66.9617H95.6067V65.9617H94.6067V66.9617ZM94.6067 75.5242V76.5242H95.6067V75.5242H94.6067ZM49.1067 75.5242H48.1067V76.5242H49.1067V75.5242ZM49.1067 52.8367V51.8367H48.1067V52.8367H49.1067ZM55.8879 52.8367H56.8879V51.8367H55.8879V52.8367ZM55.8879 89.4929V90.4929H56.8879V89.4929H55.8879ZM49.1067 89.4929H48.1067V90.4929H49.1067V89.4929ZM49.1067 67.9617L94.6067 67.9617V65.9617L49.1067 65.9617V67.9617ZM93.6067 66.9617V75.5242H95.6067V66.9617H93.6067ZM94.6067 74.5242L49.1067 74.5242V76.5242L94.6067 76.5242V74.5242ZM50.1067 75.5242V66.9617H48.1067V75.5242H50.1067ZM49.1067 53.8367H55.8879V51.8367H49.1067V53.8367ZM54.8879 52.8367L54.8879 89.4929H56.8879L56.8879 52.8367H54.8879ZM55.8879 88.4929H49.1067V90.4929H55.8879V88.4929ZM50.1067 89.4929L50.1067 52.8367H48.1067L48.1067 89.4929H50.1067Z" fill="#E4F0FF"/>
<path d="M103.73 66.8906V74H102.393V66.8906H103.73ZM105.938 66.8906V67.9502H100.21V66.8906H105.938ZM112.451 70.2646V70.6309C112.451 71.168 112.38 71.6514 112.236 72.0811C112.093 72.5075 111.89 72.8704 111.626 73.1699C111.362 73.4694 111.048 73.6989 110.684 73.8584C110.319 74.0179 109.914 74.0977 109.468 74.0977C109.028 74.0977 108.625 74.0179 108.257 73.8584C107.892 73.6989 107.576 73.4694 107.31 73.1699C107.043 72.8704 106.836 72.5075 106.689 72.0811C106.543 71.6514 106.47 71.168 106.47 70.6309V70.2646C106.47 69.7243 106.543 69.2409 106.689 68.8145C106.836 68.388 107.041 68.0251 107.305 67.7256C107.568 67.4229 107.882 67.1917 108.247 67.0322C108.615 66.8727 109.019 66.793 109.458 66.793C109.904 66.793 110.309 66.8727 110.674 67.0322C111.038 67.1917 111.353 67.4229 111.616 67.7256C111.883 68.0251 112.088 68.388 112.231 68.8145C112.378 69.2409 112.451 69.7243 112.451 70.2646ZM111.094 70.6309V70.2549C111.094 69.8675 111.058 69.5273 110.986 69.2344C110.915 68.9382 110.809 68.6891 110.669 68.4873C110.529 68.2855 110.356 68.1341 110.151 68.0332C109.946 67.929 109.715 67.877 109.458 67.877C109.198 67.877 108.966 67.929 108.765 68.0332C108.566 68.1341 108.397 68.2855 108.257 68.4873C108.117 68.6891 108.009 68.9382 107.935 69.2344C107.863 69.5273 107.827 69.8675 107.827 70.2549V70.6309C107.827 71.015 107.863 71.3551 107.935 71.6514C108.009 71.9476 108.117 72.1982 108.257 72.4033C108.4 72.6051 108.573 72.7581 108.774 72.8623C108.976 72.9665 109.207 73.0186 109.468 73.0186C109.728 73.0186 109.959 72.9665 110.161 72.8623C110.363 72.7581 110.532 72.6051 110.669 72.4033C110.809 72.1982 110.915 71.9476 110.986 71.6514C111.058 71.3551 111.094 71.015 111.094 70.6309ZM119.346 70.2646V70.6309C119.346 71.168 119.274 71.6514 119.131 72.0811C118.988 72.5075 118.784 72.8704 118.521 73.1699C118.257 73.4694 117.943 73.6989 117.578 73.8584C117.214 74.0179 116.808 74.0977 116.362 74.0977C115.923 74.0977 115.519 74.0179 115.151 73.8584C114.787 73.6989 114.471 73.4694 114.204 73.1699C113.937 72.8704 113.73 72.5075 113.584 72.0811C113.438 71.6514 113.364 71.168 113.364 70.6309V70.2646C113.364 69.7243 113.438 69.2409 113.584 68.8145C113.73 68.388 113.936 68.0251 114.199 67.7256C114.463 67.4229 114.777 67.1917 115.142 67.0322C115.509 66.8727 115.913 66.793 116.353 66.793C116.799 66.793 117.204 66.8727 117.568 67.0322C117.933 67.1917 118.247 67.4229 118.511 67.7256C118.778 68.0251 118.983 68.388 119.126 68.8145C119.272 69.2409 119.346 69.7243 119.346 70.2646ZM117.988 70.6309V70.2549C117.988 69.8675 117.952 69.5273 117.881 69.2344C117.809 68.9382 117.703 68.6891 117.563 68.4873C117.424 68.2855 117.251 68.1341 117.046 68.0332C116.841 67.929 116.61 67.877 116.353 67.877C116.092 67.877 115.861 67.929 115.659 68.0332C115.461 68.1341 115.291 68.2855 115.151 68.4873C115.011 68.6891 114.904 68.9382 114.829 69.2344C114.757 69.5273 114.722 69.8675 114.722 70.2549V70.6309C114.722 71.015 114.757 71.3551 114.829 71.6514C114.904 71.9476 115.011 72.1982 115.151 72.4033C115.295 72.6051 115.467 72.7581 115.669 72.8623C115.871 72.9665 116.102 73.0186 116.362 73.0186C116.623 73.0186 116.854 72.9665 117.056 72.8623C117.257 72.7581 117.427 72.6051 117.563 72.4033C117.703 72.1982 117.809 71.9476 117.881 71.6514C117.952 71.3551 117.988 71.015 117.988 70.6309ZM124.995 72.9453V74H121.421V72.9453H124.995ZM121.826 66.8906V74H120.483V66.8906H121.826Z" fill="#E4F0FF"/>
<defs>
<linearGradient id="paint0_linear_130_13" x1="35.3553" y1="35.3554" x2="106.066" y2="106.066" gradientUnits="userSpaceOnUse">
<stop stop-color="#5643FA"/>
<stop offset="1" stop-color="#0072FF"/>
</linearGradient>
<linearGradient id="paint1_linear_130_13" x1="35.6067" y1="70.8367" x2="110.607" y2="70.8367" gradientUnits="userSpaceOnUse">
<stop stop-color="#5643FA"/>
<stop offset="1" stop-color="#0072FF"/>
</linearGradient>
</defs>
</svg>
